<svg width="99" height="25" viewBox="0 0 99 25" fill="none" xmlns="http://www.w3.org/2000/svg">
<path opacity="0.5" d="M63.0972 23.9823V21.7324C63.0972 21.7324 62.9444 19.9324 61.1111 19.9324H58.0555V23.9823H55V12.5825H62.4861C62.4861 12.5825 66.3055 12.1325 66.3055 15.8824C66.3055 17.8324 64.625 18.5824 64.625 18.5824C64.625 18.5824 66.1528 19.1824 66.1528 21.1324V23.9823H63.0972ZM58.0555 17.2324H61.2639C62.1806 17.2324 62.9444 16.7824 62.9444 16.1824C62.9444 15.5824 62.1806 15.1324 61.2639 15.1324H58.0555V17.2324ZM42.625 23.9823H39.875L36.6667 20.5324L33.4583 23.9823H22V12.4325H33.1528L36.6667 16.0324L40.1806 12.4325H49.9583C49.9583 12.4325 53.7778 11.9825 53.7778 15.7324C53.7778 19.1824 52.5555 20.2324 48.5833 20.2324H45.5278V23.9823H42.625ZM38.6528 18.2824L42.4722 22.3323V14.3825L38.6528 18.2824ZM25.0556 21.4324H31.4722L34.5278 18.2824L31.4722 15.1324H25.0556V16.9324H31.3194V19.4824H25.0556V21.4324ZM45.5278 17.2324H48.7361C49.6528 17.2324 50.4167 16.7824 50.4167 16.1824C50.4167 15.5824 49.6528 15.1324 48.7361 15.1324H45.5278V17.2324ZM84.0278 23.9823H78.5278V21.2824H83.2639C83.2639 21.2824 84.9444 21.4324 84.9444 20.3824C84.9444 19.3324 82.3472 19.4824 82.3472 19.4824C82.3472 19.4824 78.0694 19.7824 78.0694 16.0324C78.0694 12.2825 81.8889 12.4325 81.8889 12.4325H87.8472V15.1324H83.1111C83.1111 15.1324 81.4305 14.8324 81.4305 15.8824C81.4305 16.7824 83.7222 16.6324 83.7222 16.6324C83.7222 16.6324 88.4583 16.3324 88.4583 19.7824C88.4583 23.5323 85.4028 23.8323 84.3333 23.8323C84.1805 23.9823 84.0278 23.9823 84.0278 23.9823ZM67.5278 23.9823V12.5825H77.1528V15.2824H70.7361V17.0824H77V19.6324H70.7361V21.5824H77.1528V24.1323H67.5278M94.7222 23.9823H89.2222V21.2824H93.9583C93.9583 21.2824 95.6389 21.4324 95.6389 20.3824C95.6389 19.3324 93.0417 19.4824 93.0417 19.4824C93.0417 19.4824 88.7639 19.7824 88.7639 16.0324C88.7639 12.2825 92.5833 12.4325 92.5833 12.4325H98.3889V15.1324H93.6528C93.6528 15.1324 91.9722 14.8324 91.9722 15.8824C91.9722 16.7824 94.2639 16.6324 94.2639 16.6324C94.2639 16.6324 99 16.3324 99 19.7824C99 23.5323 95.9444 23.8323 94.875 23.8323C94.875 23.9823 94.7222 23.9823 94.7222 23.9823ZM51.9444 11.6825V9.43252C51.9444 9.43252 51.7917 7.63254 49.9583 7.63254H46.9028V11.6825H43.8472V0.282633H51.3333C51.3333 0.282633 55.1528 -0.16736 55.1528 3.58259C55.1528 5.53257 53.4722 6.28256 53.4722 6.28256C53.4722 6.28256 55 6.88255 55 8.83252V11.6825H51.9444ZM46.9028 4.93257H50.1111C51.0278 4.93257 51.7917 4.48258 51.7917 3.88259C51.7917 3.28259 51.0278 2.8326 50.1111 2.8326H46.9028V4.93257ZM88.1528 11.6825L83.2639 4.03258V11.6825H77.3056L76.2361 9.28252H70.5833L69.5139 11.6825H64.7778C64.7778 11.6825 60.6528 11.0825 60.6528 6.28256C60.6528 -0.0173633 65.3889 0.132634 65.5417 0.132634L69.3611 0.282633V2.6826H66.3055C66.3055 2.6826 64.3194 2.6826 64.0139 5.23257V5.98256C64.0139 9.88251 67.5278 8.68252 67.6805 8.68252L71.5 0.132634H75.7778L80.3611 10.4825V0.132634H84.6389L89.375 7.63254V0.132634H92.4306V11.6825H88.1528ZM71.9583 6.28256H75.0139L73.4861 2.8326L71.9583 6.28256ZM27.5 11.6825V3.73259L23.5278 11.6825H21.0833L17.2639 3.73259V11.6825H11.1528L10.0833 9.28252H4.43056L3.36111 11.6825H0L5.04167 0.282633H9.31944L14.0556 10.7825V0.282633H18.9444L22.3056 7.48254L25.6667 0.282633H30.5556V11.6825H27.5ZM5.80556 6.43255H8.86111L7.33333 2.9826L5.80556 6.43255ZM32.6944 11.6825V0.282633H42.3194V2.9826H35.9028V4.78258H42.1667V7.18254H35.9028V9.13252H42.3194V11.6825H32.6944ZM56.5278 11.6825V0.132634H59.5833V11.6825H56.5278Z" fill="#008BB6"/>
</svg>
