<svg width="97" height="26" viewBox="0 0 97 26" fill="none" xmlns="http://www.w3.org/2000/svg">
<g opacity="0.5">
<path fill-rule="evenodd" clip-rule="evenodd" d="M5.0847 1.3109H0.768555V16.3333H5.02866C7.32737 16.3333 8.95252 15.8284 10.4101 14.5956C12.0918 13.1946 13.1566 11.064 13.1566 8.82185C13.1566 4.39417 9.84916 1.3109 5.0847 1.3109ZM8.5042 12.6336C7.55153 13.4187 6.37361 13.811 4.46826 13.811H3.68371V3.88927H4.46826C6.37361 3.88927 7.49495 4.22551 8.5042 5.0661C9.51292 5.96274 10.1299 7.36482 10.1299 8.82185C10.1294 10.2794 9.51292 11.737 8.5042 12.6336ZM14.5021 16.3339H17.4167V1.3109H14.5021V16.3339ZM24.5914 7.08462C22.7976 6.41214 22.2932 6.01987 22.2932 5.17873C22.2932 4.22605 23.2459 3.55358 24.4793 3.55358C25.3759 3.55358 26.105 3.88982 26.8335 4.73041L28.4032 2.76902C27.1137 1.64768 25.6006 1.08729 23.975 1.08729C21.2845 1.08729 19.2665 2.93714 19.2665 5.40343C19.2665 7.47744 20.2192 8.4867 22.9662 9.49541C24.1436 9.88769 24.704 10.1679 24.9842 10.336C25.6007 10.7288 25.8808 11.2887 25.8808 11.9057C25.8808 13.1391 24.9282 14.0357 23.5827 14.0357C22.2372 14.0357 21.0603 13.3072 20.3873 12.0177L18.538 13.8676C19.8835 15.829 21.5087 16.7262 23.7508 16.7262C26.7775 16.7262 28.9081 14.7082 28.9081 11.7936C28.9075 9.38279 27.8988 8.31749 24.5914 7.08462ZM29.8047 8.82185C29.8047 13.2501 33.2803 16.6696 37.764 16.6696C38.9974 16.6696 40.1182 16.4449 41.4076 15.8284V12.3529C40.2303 13.5297 39.2215 14.0346 37.8761 14.0346C34.9614 14.0346 32.8314 11.8485 32.8314 8.8213C32.8314 5.96274 35.0175 3.66457 37.764 3.66457C39.1655 3.66457 40.2303 4.16892 41.4076 5.3463V1.9268C40.1742 1.25378 39.1095 0.974121 37.82 0.974121C33.3918 0.974665 29.8047 4.50625 29.8047 8.82185Z" fill="black"/>
<path fill-rule="evenodd" clip-rule="evenodd" d="M50.5457 0.974609C46.1169 0.974609 42.5293 4.45016 42.5293 8.70971C42.5293 13.3066 45.9488 16.6695 50.5457 16.6695C55.0289 16.6695 58.561 13.25 58.561 8.82179C58.5615 4.45015 55.0854 0.974609 50.5457 0.974609Z" fill="#DB8135"/>
<path fill-rule="evenodd" clip-rule="evenodd" d="M50.5457 0.974609C46.1169 0.974609 42.5293 4.45016 42.5293 8.70971C42.5293 13.3066 45.9488 16.6695 50.5457 16.6695C55.0289 16.6695 58.561 13.25 58.561 8.82179C58.5615 4.45015 55.0854 0.974609 50.5457 0.974609Z" fill="#DB8135"/>
<path fill-rule="evenodd" clip-rule="evenodd" d="M58.561 8.82179C58.561 4.44961 55.0849 0.974609 50.5457 0.974609C46.1169 0.974609 42.5293 4.45016 42.5293 8.70971C42.5293 13.3066 45.9488 16.6695 50.5457 16.6695C55.0289 16.6695 58.561 13.25 58.561 8.82179Z" fill="#DB8135"/>
<path fill-rule="evenodd" clip-rule="evenodd" d="M58.561 8.82179C58.561 4.44961 55.0849 0.974609 50.5457 0.974609C46.1169 0.974609 42.5293 4.45016 42.5293 8.70971C42.5293 13.3066 45.9488 16.6695 50.5457 16.6695C55.0289 16.6695 58.561 13.25 58.561 8.82179Z" fill="#DB8137"/>
<path fill-rule="evenodd" clip-rule="evenodd" d="M58.561 8.82179C58.561 4.44961 55.0849 0.974609 50.5457 0.974609C46.1169 0.974609 42.5293 4.45016 42.5293 8.70971C42.5293 13.3066 45.9488 16.6695 50.5457 16.6695C55.0289 16.6695 58.561 13.25 58.561 8.82179Z" fill="#DC8337"/>
<path fill-rule="evenodd" clip-rule="evenodd" d="M58.561 8.82179C58.561 4.44961 55.0849 0.974609 50.5457 0.974609C46.1169 0.974609 42.5293 4.45016 42.5293 8.70971C42.5293 13.3066 45.9488 16.6695 50.5457 16.6695C55.0289 16.6695 58.561 13.25 58.561 8.82179Z" fill="#DC8539"/>
<path fill-rule="evenodd" clip-rule="evenodd" d="M58.561 8.82179C58.561 4.44961 55.0849 0.974609 50.5457 0.974609C46.1169 0.974609 42.5293 4.45016 42.5293 8.70971C42.5293 13.3066 45.9488 16.6695 50.5457 16.6695C55.0289 16.6695 58.561 13.25 58.561 8.82179Z" fill="#DC853A"/>
<path fill-rule="evenodd" clip-rule="evenodd" d="M58.561 8.82179C58.561 4.44961 55.0849 0.974609 50.5457 0.974609C46.1169 0.974609 42.5293 4.45016 42.5293 8.70971C42.5293 13.3066 45.9488 16.6695 50.5457 16.6695C55.0289 16.6695 58.561 13.25 58.561 8.82179Z" fill="#DC853C"/>
<path fill-rule="evenodd" clip-rule="evenodd" d="M58.561 8.82179C58.561 4.44961 55.0849 0.974609 50.5457 0.974609C46.1169 0.974609 42.5293 4.45016 42.5293 8.70971C42.5293 13.3066 45.9488 16.6695 50.5457 16.6695C55.0289 16.6695 58.561 13.25 58.561 8.82179Z" fill="#DD873E"/>
<path fill-rule="evenodd" clip-rule="evenodd" d="M58.561 8.82179C58.561 4.44961 55.0849 0.974609 50.5457 0.974609C46.1169 0.974609 42.5293 4.45016 42.5293 8.70971C42.5293 13.3066 45.9488 16.6695 50.5457 16.6695C55.0289 16.6695 58.561 13.25 58.561 8.82179Z" fill="#DD873E"/>
<path fill-rule="evenodd" clip-rule="evenodd" d="M58.561 8.82179C58.561 4.44961 55.0849 0.974609 50.5457 0.974609C46.1169 0.974609 42.5293 4.45016 42.5293 8.70971C42.5293 13.3066 45.9488 16.6695 50.5457 16.6695C55.0289 16.6695 58.561 13.25 58.561 8.82179Z" fill="#DD883F"/>
<path fill-rule="evenodd" clip-rule="evenodd" d="M58.561 8.82179C58.561 4.44961 55.0849 0.974609 50.5457 0.974609C46.1169 0.974609 42.5293 4.45016 42.5293 8.70971C42.5293 13.3066 45.9488 16.6695 50.5457 16.6695C55.0289 16.6695 58.561 13.25 58.561 8.82179Z" fill="#DD8841"/>
<path fill-rule="evenodd" clip-rule="evenodd" d="M58.561 8.82179C58.561 4.44961 55.0849 0.974609 50.5457 0.974609C46.1169 0.974609 42.5293 4.45016 42.5293 8.70971C42.5293 13.3066 45.9488 16.6695 50.5457 16.6695C55.0289 16.6695 58.561 13.25 58.561 8.82179Z" fill="#DE8A41"/>
<path fill-rule="evenodd" clip-rule="evenodd" d="M58.561 8.82179C58.561 4.44961 55.0849 0.974609 50.5457 0.974609C46.1169 0.974609 42.5293 4.45016 42.5293 8.70971C42.5293 13.3066 45.9488 16.6695 50.5457 16.6695C55.0289 16.6695 58.561 13.25 58.561 8.82179Z" fill="#DE8A43"/>
<path fill-rule="evenodd" clip-rule="evenodd" d="M58.561 8.82179C58.561 4.44961 55.0849 0.974609 50.5457 0.974609C46.1169 0.974609 42.5293 4.45016 42.5293 8.70971C42.5293 13.3066 45.9488 16.6695 50.5457 16.6695C55.0289 16.6695 58.561 13.25 58.561 8.82179Z" fill="#DE8A44"/>
<path fill-rule="evenodd" clip-rule="evenodd" d="M58.561 8.82179C58.561 4.44961 55.0849 0.974609 50.5457 0.974609C46.1169 0.974609 42.5293 4.45016 42.5293 8.70971C42.5293 13.3066 45.9488 16.6695 50.5457 16.6695C55.0289 16.6695 58.561 13.25 58.561 8.82179Z" fill="#DE8C46"/>
<path fill-rule="evenodd" clip-rule="evenodd" d="M58.5609 8.82185C58.5609 8.75384 58.5603 8.68583 58.5582 8.61782V8.6151C58.5567 8.54832 58.5542 8.48158 58.5505 8.41488V8.40944C58.5472 8.3441 58.543 8.2788 58.538 8.21357C58.538 8.21085 58.538 8.20813 58.5369 8.20541C58.5325 8.14133 58.5273 8.0773 58.5212 8.01335C58.5201 8.00954 58.5201 8.00628 58.5201 8.00247C58.5137 7.93978 58.5062 7.87721 58.4978 7.81477V7.81313C58.4901 7.75358 58.482 7.69409 58.4733 7.63468C58.4722 7.62869 58.4711 7.62271 58.4711 7.61672C58.4613 7.55796 58.4521 7.49975 58.4412 7.44099L58.4379 7.4214L58.4211 7.32619L58.3987 7.21357L58.3873 7.1597C58.3775 7.114 58.3683 7.06829 58.3574 7.02314C58.353 7.00192 58.3465 6.98124 58.3427 6.96003L58.3106 6.83271L58.2785 6.71301L58.2627 6.65426C58.2513 6.61236 58.2382 6.57101 58.2268 6.52966L58.2078 6.46492C57.2154 3.26413 54.2311 0.974121 50.5461 0.974121C47.3023 0.974121 44.5107 2.83921 43.2485 5.51061C42.7809 6.53266 42.5361 7.64246 42.5303 8.76635C42.5363 9.73752 42.6957 10.6532 42.9857 11.4927L43.0107 11.5629L43.0216 11.5923C43.3309 12.4313 43.7787 13.2125 44.3464 13.9035C45.7882 15.6239 47.9841 16.669 50.5461 16.669C54.1887 16.669 57.2023 14.4122 58.2056 11.1902L58.2567 11.0172C58.403 10.5022 58.4971 9.97322 58.5375 9.43937L58.5386 9.43828C58.5429 9.37082 58.5484 9.30281 58.5511 9.2348C58.5578 9.09743 58.5607 8.95938 58.5609 8.82185Z" fill="#DF8E47"/>
<path fill-rule="evenodd" clip-rule="evenodd" d="M58.5036 8.82179C58.5036 5.7728 56.7577 3.1335 54.219 1.81466C53.1265 1.27711 51.8822 0.974609 50.5443 0.974609C48.8223 0.974609 47.2298 1.50073 45.9235 2.39192C43.9066 3.82447 42.584 6.1678 42.584 8.82179C42.584 11.7413 44.1847 14.311 46.5492 15.6962C47.7097 16.3213 49.065 16.6695 50.5443 16.6695C52.4094 16.6695 54.1086 16.0776 55.4579 15.0689C57.3077 13.6064 58.5036 11.3447 58.5036 8.82179Z" fill="#DF8E48"/>
<path fill-rule="evenodd" clip-rule="evenodd" d="M50.5446 8.82179H58.3912C58.3912 4.50565 54.8602 0.974609 50.5446 0.974609C50.4766 0.974609 50.4096 0.975696 50.3427 0.977328H50.3373C46.1163 1.08778 42.6963 4.57529 42.6963 8.82179C42.6943 10.465 43.2042 12.068 44.1552 13.4081C45.1062 14.7482 46.4509 15.7589 48.0027 16.2996C48.7937 16.5406 49.6463 16.6701 50.544 16.6701C51.6398 16.6701 52.6779 16.4649 53.6224 16.0923C55.0402 15.4784 56.2473 14.4629 57.0947 13.171C57.942 11.8791 58.3926 10.3673 58.3907 8.82234L50.5446 8.82179Z" fill="#DF8E4A"/>
<path fill-rule="evenodd" clip-rule="evenodd" d="M58.3363 8.82196C58.3363 4.56186 54.8602 1.03027 50.5452 1.03027C46.2285 1.03027 42.7529 4.56186 42.7529 8.82196C42.7507 9.84585 42.9508 10.8601 43.3416 11.8065C43.7324 12.7528 44.3063 13.6127 45.0303 14.3367C45.7543 15.0606 46.6142 15.6345 47.5606 16.0252C48.507 16.416 49.5213 16.6159 50.5452 16.6136C51.569 16.6158 52.5831 16.4157 53.5294 16.0249C54.4757 15.6341 55.3354 15.0602 56.0593 14.3363C56.7833 13.6123 57.3571 12.7525 57.7478 11.8062C58.1385 10.8599 58.3385 9.84576 58.3363 8.82196Z" fill="#DF904A"/>
<path fill-rule="evenodd" clip-rule="evenodd" d="M58.2789 8.8217C58.2789 4.5616 54.8028 1.14209 50.5438 1.14209C46.2832 1.14209 42.8076 4.5616 42.8076 8.8217C42.8076 13.0823 46.2832 16.5573 50.5438 16.5573C54.8028 16.5573 58.2789 13.0818 58.2789 8.8217Z" fill="#E0914C"/>
<path fill-rule="evenodd" clip-rule="evenodd" d="M58.2239 8.82175C58.2239 4.61769 54.7489 1.19873 50.5454 1.19873C46.3408 1.19873 42.8652 4.61769 42.8652 8.82175C42.8652 13.0824 46.3408 16.5014 50.5454 16.5014C54.7494 16.5014 58.2239 13.0824 58.2239 8.82175Z" fill="#E0914E"/>
<path fill-rule="evenodd" clip-rule="evenodd" d="M58.1126 8.82192C58.1126 4.6739 54.7491 1.25439 50.5456 1.25439C46.341 1.25439 42.9775 4.6739 42.9775 8.82192C42.9775 13.026 46.341 16.4449 50.5456 16.4449C54.7497 16.4449 58.1126 13.026 58.1126 8.82192Z" fill="#DF924F"/>
<path fill-rule="evenodd" clip-rule="evenodd" d="M58.0562 8.82198C58.0562 4.67396 54.6927 1.31104 50.5452 1.31104C46.3967 1.31104 43.0332 4.6745 43.0332 8.82198C43.0332 12.9695 46.3967 16.3335 50.5452 16.3335C54.6927 16.3335 58.0562 12.9695 58.0562 8.82198Z" fill="#E09351"/>
<path fill-rule="evenodd" clip-rule="evenodd" d="M57.9992 8.82172C57.9992 4.72974 54.6358 1.42285 50.5449 1.42285C46.4523 1.42285 43.0889 4.72974 43.0889 8.82172C43.0889 12.9697 46.4523 16.2772 50.5449 16.2772C54.6363 16.2772 57.9992 12.9697 57.9992 8.82172Z" fill="#E09552"/>
<path fill-rule="evenodd" clip-rule="evenodd" d="M57.8883 8.82183C57.8883 4.78643 54.6364 1.479 50.5455 1.479C46.4529 1.479 43.1455 4.78643 43.1455 8.82183C43.1455 12.9138 46.4529 16.2207 50.5455 16.2207C54.6369 16.2207 57.8883 12.9138 57.8883 8.82183Z" fill="#E09554"/>
<path fill-rule="evenodd" clip-rule="evenodd" d="M57.8319 8.82196C57.8337 7.86454 57.6465 6.91619 57.2809 6.03131C56.9154 5.14642 56.3787 4.34242 55.7017 3.66543C55.0247 2.98843 54.2207 2.45175 53.3358 2.08619C52.4509 1.72063 51.5026 1.53338 50.5452 1.53517C49.5877 1.53324 48.6392 1.72039 47.7543 2.08589C46.8693 2.45139 46.0652 2.98805 45.3881 3.66507C44.711 4.34209 44.1743 5.14614 43.8088 6.03109C43.4432 6.91605 43.256 7.86447 43.2578 8.82196C43.2578 12.8579 46.5087 16.1653 50.5452 16.1653C54.58 16.1653 57.8319 12.8579 57.8319 8.82196Z" fill="#E09555"/>
<path fill-rule="evenodd" clip-rule="evenodd" d="M57.7745 8.82206C57.7745 4.84215 54.5237 1.59131 50.5443 1.59131C46.5639 1.59131 43.3125 4.84215 43.3125 8.82206C43.3125 12.858 46.5639 16.0533 50.5443 16.0533C51.4946 16.0556 52.4359 15.8702 53.3142 15.5076C54.1925 15.145 54.9905 14.6124 55.6624 13.9404C56.3342 13.2684 56.8667 12.4704 57.2292 11.592C57.5916 10.7136 57.777 9.77228 57.7745 8.82206Z" fill="#E19756"/>
<path fill-rule="evenodd" clip-rule="evenodd" d="M57.7186 8.82179C57.7186 4.89847 54.5243 1.70312 50.5444 1.70312C46.564 1.70312 43.3692 4.89847 43.3692 8.82179C43.3662 9.76486 43.5498 10.6992 43.9094 11.571C44.2689 12.4429 44.7973 13.235 45.4642 13.9018C46.1311 14.5687 46.9233 15.097 47.7951 15.4565C48.667 15.816 49.6014 15.9995 50.5444 15.9965C51.4874 15.9994 52.4216 15.8158 53.2934 15.4562C54.1651 15.0967 54.9572 14.5683 55.6239 13.9015C56.2907 13.2346 56.819 12.4426 57.1785 11.5708C57.538 10.699 57.7215 9.76477 57.7186 8.82179Z" fill="#E19757"/>
<path fill-rule="evenodd" clip-rule="evenodd" d="M57.6071 8.82191C57.6071 4.89858 54.4678 1.75928 50.545 1.75928C46.6206 1.75928 43.4258 4.89858 43.4258 8.82191C43.4258 12.7458 46.6211 15.9406 50.545 15.9406C54.4683 15.9406 57.6071 12.7452 57.6071 8.82191Z" fill="#E29959"/>
<path fill-rule="evenodd" clip-rule="evenodd" d="M57.5503 8.82202C57.5503 4.95419 54.411 1.81543 50.5442 1.81543C46.6759 1.81543 43.5371 4.95419 43.5371 8.82202C43.5371 12.6898 46.6764 15.8847 50.5442 15.8847C54.411 15.8847 57.5503 12.6898 57.5503 8.82202Z" fill="#E2995B"/>
<path fill-rule="evenodd" clip-rule="evenodd" d="M57.4943 8.82164C57.4943 5.0104 54.355 1.87109 50.5448 1.87109C46.7325 1.87109 43.5938 5.0104 43.5938 8.82164C43.5938 12.6895 46.7331 15.7722 50.5448 15.7722C54.3555 15.7722 57.4943 12.6895 57.4943 8.82164Z" fill="#E29B5B"/>
<path fill-rule="evenodd" clip-rule="evenodd" d="M57.44 8.82187C57.44 5.06612 54.3561 1.9834 50.5454 1.9834C46.7331 1.9834 43.6504 5.06612 43.6504 8.82187C43.6504 12.6337 46.7337 15.7164 50.5454 15.7164C54.3561 15.7164 57.44 12.6331 57.44 8.82187Z" fill="#E29B5D"/>
<path fill-rule="evenodd" clip-rule="evenodd" d="M57.3266 8.82199C57.3283 7.93087 57.1541 7.04818 56.8139 6.22456C56.4736 5.40093 55.9742 4.65259 55.3441 4.02245C54.714 3.3923 53.9657 2.89277 53.1421 2.5525C52.3185 2.21222 51.4358 2.03791 50.5447 2.03956C46.7884 2.03956 43.7617 5.06625 43.7617 8.82199C43.7617 12.5777 46.7884 15.661 50.5447 15.661C54.2999 15.661 57.3266 12.5777 57.3266 8.82199Z" fill="#E39D5F"/>
<path fill-rule="evenodd" clip-rule="evenodd" d="M57.2696 8.82161C57.2696 5.1219 54.2435 2.09521 50.5443 2.09521C46.8441 2.09521 43.8174 5.1219 43.8174 8.82161C43.8174 12.5774 46.8441 15.604 50.5443 15.604C54.2435 15.604 57.2696 12.5774 57.2696 8.82161Z" fill="#E39D61"/>
<path fill-rule="evenodd" clip-rule="evenodd" d="M57.2143 8.82172C57.2143 5.17805 54.2431 2.15137 50.5439 2.15137C46.8437 2.15137 43.873 5.17805 43.873 8.82172C43.873 12.5214 46.8437 15.4921 50.5439 15.4921C54.2431 15.4921 57.2143 12.5214 57.2143 8.82172Z" fill="#E39F63"/>
<path fill-rule="evenodd" clip-rule="evenodd" d="M57.1593 8.82194C57.1593 5.17828 54.1881 2.26367 50.5455 2.26367C46.9013 2.26367 43.9307 5.17828 43.9307 8.82194C43.9307 12.4656 46.9013 15.4368 50.5455 15.4368C54.1881 15.4368 57.1593 12.4656 57.1593 8.82194Z" fill="#E39F63"/>
<path fill-rule="evenodd" clip-rule="evenodd" d="M57.0459 8.82205C57.0459 5.23497 54.1324 2.31982 50.5448 2.31982C46.9566 2.31982 44.042 5.23443 44.042 8.82205C44.042 12.4657 46.9566 15.3803 50.5448 15.3803C54.1324 15.3803 57.0459 12.4657 57.0459 8.82205Z" fill="#E39F64"/>
<path fill-rule="evenodd" clip-rule="evenodd" d="M56.9925 8.82168C56.9925 5.29064 54.134 2.37549 50.5463 2.37549C46.9582 2.37549 44.0996 5.29064 44.0996 8.82168C44.0996 12.4093 46.9582 15.3245 50.5463 15.3245C54.134 15.3245 56.9925 12.4093 56.9925 8.82168Z" fill="#E4A166"/>
<path fill-rule="evenodd" clip-rule="evenodd" d="M56.9346 8.82179C56.9346 5.29075 54.076 2.43164 50.545 2.43164C47.0129 2.43164 44.1543 5.2902 44.1543 8.82179C44.1543 12.3534 47.0129 15.2125 50.545 15.2125C54.076 15.2125 56.9346 12.3534 56.9346 8.82179Z" fill="#E4A367"/>
<path fill-rule="evenodd" clip-rule="evenodd" d="M56.8772 8.82202C56.8772 5.34701 54.0186 2.54395 50.5436 2.54395C47.0676 2.54395 44.209 5.34647 44.209 8.82202C44.209 12.3536 47.0676 15.1561 50.5436 15.1561C54.0186 15.1561 56.8772 12.3536 56.8772 8.82202Z" fill="#E4A369"/>
<path fill-rule="evenodd" clip-rule="evenodd" d="M56.7679 8.82164C56.7679 5.40268 54.0208 2.59961 50.5458 2.59961C47.0697 2.59961 44.3232 5.40268 44.3232 8.82164C44.3232 12.2972 47.0697 15.0997 50.5458 15.0997C54.0208 15.0997 56.7679 12.2972 56.7679 8.82164Z" fill="#E4A36A"/>
<path fill-rule="evenodd" clip-rule="evenodd" d="M56.7099 8.82178C56.7122 8.01146 56.5543 7.20867 56.2453 6.45957C55.9363 5.71048 55.4822 5.02986 54.9093 4.45684C54.3363 3.88382 53.6557 3.42971 52.9067 3.12063C52.1576 2.81154 51.3548 2.65356 50.5445 2.65579C49.7341 2.65335 48.9311 2.81117 48.1819 3.12017C47.4327 3.42916 46.7519 3.88325 46.1788 4.45629C45.6057 5.02934 45.1516 5.71004 44.8425 6.45923C44.5335 7.20843 44.3756 8.01134 44.378 8.82178C44.378 12.2413 47.1244 15.0438 50.5445 15.0438C53.9629 15.0438 56.7099 12.2413 56.7099 8.82178Z" fill="#E5A56C"/>
<path fill-rule="evenodd" clip-rule="evenodd" d="M56.6555 8.82181C56.6555 5.45889 53.9084 2.7124 50.546 2.7124C47.182 2.7124 44.4355 5.45889 44.4355 8.82181C44.4355 12.1853 47.182 14.9318 50.546 14.9318C53.9084 14.9318 56.6555 12.1853 56.6555 8.82181Z" fill="#E5A56C"/>
<path fill-rule="evenodd" clip-rule="evenodd" d="M56.5965 8.82203C56.5965 5.51515 53.8506 2.82471 50.5437 2.82471C47.2357 2.82471 44.4893 5.51515 44.4893 8.82203C44.4893 12.1855 47.2357 14.8754 50.5437 14.8754C53.8506 14.8754 56.5965 12.1855 56.5965 8.82203Z" fill="#E5A76E"/>
<path fill-rule="evenodd" clip-rule="evenodd" d="M56.4857 8.82166C56.4857 5.57082 53.8513 2.88037 50.5444 2.88037C47.2364 2.88037 44.6025 5.57082 44.6025 8.82166C44.6025 12.1291 47.2369 14.8195 50.5444 14.8195C53.8513 14.8195 56.4857 12.1291 56.4857 8.82166Z" fill="#E5A770"/>
<path fill-rule="evenodd" clip-rule="evenodd" d="M56.4302 8.82177C56.4302 5.57093 53.7958 2.93652 50.5455 2.93652C47.2936 2.93652 44.6592 5.57093 44.6592 8.82177C44.6592 12.0732 47.2936 14.7076 50.5455 14.7076C53.7964 14.7076 56.4302 12.0732 56.4302 8.82177Z" fill="#E6A970"/>
<path fill-rule="evenodd" clip-rule="evenodd" d="M56.3728 8.82189C56.3728 5.62708 53.7384 2.99268 50.5442 2.99268C47.3483 2.99268 44.7139 5.62708 44.7139 8.82189C44.7139 12.0733 47.3483 14.6511 50.5442 14.6511C53.7384 14.6511 56.3728 12.0733 56.3728 8.82189Z" fill="#E6A972"/>
<path fill-rule="evenodd" clip-rule="evenodd" d="M56.3189 8.82162C56.3189 5.68286 53.74 3.10449 50.5458 3.10449C47.3499 3.10449 44.7715 5.68286 44.7715 8.82162C44.7704 9.58019 44.919 10.3315 45.2089 11.0325C45.4987 11.7335 45.924 12.3705 46.4604 12.9068C46.9968 13.4432 47.6338 13.8684 48.3348 14.1582C49.0359 14.4479 49.7872 14.5965 50.5458 14.5953C51.3042 14.5963 52.0554 14.4477 52.7564 14.1579C53.4573 13.8681 54.0941 13.4428 54.6304 12.9065C55.1667 12.3701 55.5919 11.7332 55.8817 11.0323C56.1714 10.3313 56.32 9.5801 56.3189 8.82162Z" fill="#E6AB74"/>
<path fill-rule="evenodd" clip-rule="evenodd" d="M56.2056 8.82176C56.2076 8.07782 56.0625 7.34081 55.7788 6.65311C55.495 5.9654 55.0782 5.34055 54.5521 4.81448C54.0261 4.2884 53.4013 3.87147 52.7136 3.58766C52.026 3.30384 51.289 3.15873 50.545 3.16067C49.8009 3.15851 49.0638 3.30347 48.3759 3.58719C47.688 3.87091 47.063 4.2878 46.5368 4.8139C46.0106 5.33999 45.5936 5.96491 45.3098 6.65273C45.0259 7.34054 44.8808 8.07768 44.8828 8.82176C44.8828 11.9611 47.4052 14.5394 50.545 14.5394C53.6832 14.5394 56.2056 11.9611 56.2056 8.82176Z" fill="#E6AB75"/>
<path fill-rule="evenodd" clip-rule="evenodd" d="M56.1511 8.82185C56.1511 5.73858 53.6293 3.2168 50.5466 3.2168C47.4633 3.2168 44.9404 5.73912 44.9404 8.82185C44.9404 11.9612 47.4628 14.4274 50.5466 14.4274C51.2834 14.43 52.0134 14.2867 52.6945 14.0059C53.3757 13.725 53.9946 13.3122 54.5156 12.7912C55.0365 12.2701 55.4492 11.6511 55.7299 10.9699C56.0106 10.2887 56.1537 9.55864 56.1511 8.82185Z" fill="#E7AD77"/>
<path fill-rule="evenodd" clip-rule="evenodd" d="M56.0942 8.82196C56.0942 5.79528 53.6279 3.27295 50.5452 3.27295C47.4619 3.27295 44.9951 5.79528 44.9951 8.82196C44.9951 11.9052 47.4614 14.3715 50.5452 14.3715C51.2748 14.3745 51.9978 14.2331 52.6724 13.9552C53.3471 13.6774 53.96 13.2687 54.4759 12.7528C54.9918 12.2369 55.4004 11.6239 55.6782 10.9492C55.9559 10.2746 56.0973 9.55156 56.0942 8.82196Z" fill="#E7AD77"/>
<path fill-rule="evenodd" clip-rule="evenodd" d="M56.0378 8.82175C56.0378 5.79507 53.5715 3.38428 50.5448 3.38428C47.5176 3.38428 45.0508 5.79507 45.0508 8.82175C45.0508 11.849 47.5171 14.3153 50.5448 14.3153C53.571 14.3153 56.0378 11.849 56.0378 8.82175Z" fill="#E8AF79"/>
<path fill-rule="evenodd" clip-rule="evenodd" d="M55.9254 8.82181C55.9254 5.85117 53.5152 3.44092 50.5451 3.44092C47.5739 3.44092 45.1631 5.85117 45.1631 8.82181C45.1631 11.849 47.5733 14.2593 50.5451 14.2593C53.5152 14.2593 55.9254 11.849 55.9254 8.82181Z" fill="#E8AF7B"/>
<path fill-rule="evenodd" clip-rule="evenodd" d="M55.8686 8.82198C55.8686 5.90737 53.5138 3.49658 50.5437 3.49658C47.5725 3.49658 45.2178 5.90737 45.2178 8.82198C45.2178 11.7926 47.572 14.1474 50.5437 14.1474C53.5138 14.1474 55.8686 11.7932 55.8686 8.82198Z" fill="#E8B17B"/>
<path fill-rule="evenodd" clip-rule="evenodd" d="M55.8151 8.82204C55.8158 8.12993 55.68 7.44447 55.4155 6.80491C55.151 6.16534 54.7629 5.58423 54.2735 5.09483C53.7841 4.60543 53.203 4.21736 52.5634 3.95284C51.9238 3.68831 51.2384 3.55251 50.5463 3.55323C49.8541 3.55237 49.1685 3.68805 48.5288 3.95252C47.8891 4.21698 47.3079 4.60503 46.8184 5.09444C46.3288 5.58386 45.9407 6.16502 45.6761 6.80466C45.4115 7.44429 45.2757 8.12984 45.2764 8.82204C45.2756 9.51429 45.4114 10.1999 45.6759 10.8396C45.9405 11.4793 46.3286 12.0605 46.8182 12.55C47.3077 13.0395 47.889 13.4276 48.5287 13.6921C49.1684 13.9566 49.854 14.0923 50.5463 14.0914C51.2384 14.092 51.9239 13.9562 52.5635 13.6916C53.203 13.427 53.7841 13.0389 54.2735 12.5494C54.7629 12.06 55.151 11.4789 55.4155 10.8393C55.68 10.1997 55.8158 9.51418 55.8151 8.82204Z" fill="#E8B17D"/>
<path fill-rule="evenodd" clip-rule="evenodd" d="M55.7572 8.82177C55.7572 5.96321 53.4035 3.66504 50.5449 3.66504C47.6858 3.66504 45.3311 5.96321 45.3311 8.82177C45.3311 11.6803 47.6853 14.0351 50.5449 14.0351C53.4035 14.0351 55.7572 11.6809 55.7572 8.82177Z" fill="#E8B17E"/>
<path fill-rule="evenodd" clip-rule="evenodd" d="M55.6453 8.82192C55.6453 6.01939 53.3466 3.72122 50.5446 3.72122C49.8741 3.71892 49.2098 3.84928 48.5899 4.10479C47.97 4.36031 47.4067 4.73593 46.9326 5.21002C46.4584 5.68412 46.0827 6.24732 45.8272 6.86721C45.5716 7.48709 45.4412 8.15142 45.4434 8.82192C45.4434 11.6805 47.6855 13.9787 50.5446 13.9787C53.3466 13.9787 55.6453 11.6805 55.6453 8.82192Z" fill="#E9B381"/>
<path fill-rule="evenodd" clip-rule="evenodd" d="M55.5884 8.82204C55.5912 8.15883 55.4626 7.50163 55.2101 6.88835C54.9577 6.27507 54.5862 5.71786 54.1173 5.24887C53.6483 4.77987 53.0912 4.40838 52.4779 4.15583C51.8647 3.90327 51.2075 3.77465 50.5443 3.77739C49.881 3.77458 49.2237 3.90314 48.6104 4.15566C47.997 4.40818 47.4397 4.77965 46.9707 5.24864C46.5017 5.71763 46.1301 6.27486 45.8775 6.88818C45.625 7.5015 45.4963 8.15876 45.4991 8.82204C45.4963 9.48536 45.625 10.1426 45.8775 10.756C46.1301 11.3693 46.5016 11.9266 46.9707 12.3956C47.4397 12.8647 47.997 13.2362 48.6103 13.4888C49.2237 13.7414 49.881 13.87 50.5443 13.8672C51.2075 13.8699 51.8647 13.7412 52.478 13.4886C53.0912 13.236 53.6484 12.8644 54.1173 12.3954C54.5863 11.9264 54.9577 11.3691 55.2102 10.7558C55.4626 10.1425 55.5912 9.48528 55.5884 8.82204Z" fill="#E9B381"/>
<path fill-rule="evenodd" clip-rule="evenodd" d="M55.5319 8.82162C55.5319 6.07514 53.2898 3.83301 50.5438 3.83301C47.7968 3.83301 45.5547 6.07514 45.5547 8.82162C45.5547 11.5681 47.7968 13.8102 50.5438 13.8102C53.2898 13.8102 55.5319 11.5681 55.5319 8.82162Z" fill="#E9B583"/>
<path fill-rule="evenodd" clip-rule="evenodd" d="M55.478 8.82185C55.478 6.1314 53.2348 3.94531 50.5454 3.94531C47.8544 3.94531 45.6123 6.1314 45.6123 8.82185C45.6123 11.5683 47.8544 13.7544 50.5454 13.7544C53.2348 13.7544 55.478 11.5683 55.478 8.82185Z" fill="#E9B584"/>
<path fill-rule="evenodd" clip-rule="evenodd" d="M55.3637 8.82196C55.3637 6.18756 53.2331 4.00146 50.5437 4.00146C47.8527 4.00146 45.7227 6.18756 45.7227 8.82196C45.7227 11.5124 47.8527 13.6985 50.5437 13.6985C53.2331 13.6985 55.3637 11.5124 55.3637 8.82196Z" fill="#EAB786"/>
<path fill-rule="evenodd" clip-rule="evenodd" d="M55.3092 8.82208C55.3098 8.19628 55.1869 7.57652 54.9477 6.99824C54.7085 6.41997 54.3577 5.89454 53.9152 5.45201C53.4727 5.00948 52.9473 4.65855 52.3691 4.41928C51.7908 4.18002 51.1711 4.05712 50.5453 4.05762C47.9103 4.05762 45.7803 6.18767 45.7803 8.82208C45.7803 11.4565 47.9103 13.5865 50.5453 13.5865C51.1711 13.587 51.7908 13.4641 52.3691 13.2249C52.9473 12.9856 53.4727 12.6347 53.9152 12.1921C54.3577 11.7496 54.7085 11.2242 54.9477 10.6459C55.1869 10.0676 55.3098 9.44787 55.3092 8.82208Z" fill="#EAB788"/>
<path fill-rule="evenodd" clip-rule="evenodd" d="M55.2522 8.8217C55.2522 6.24333 53.1227 4.11328 50.5449 4.11328C47.966 4.11328 45.8359 6.24333 45.8359 8.8217C45.8359 11.4561 47.966 13.5301 50.5449 13.5301C53.1227 13.5301 55.2522 11.4561 55.2522 8.8217Z" fill="#EBB989"/>
<path fill-rule="evenodd" clip-rule="evenodd" d="M55.1979 8.82193C55.1979 6.2996 53.1239 4.22559 50.5455 4.22559C47.9666 4.22559 45.8926 6.2996 45.8926 8.82193C45.8911 9.43335 46.0104 10.0391 46.2437 10.6042C46.477 11.1694 46.8197 11.6829 47.2521 12.1152C47.6844 12.5475 48.198 12.8902 48.7632 13.1234C49.3284 13.3566 49.9341 13.4759 50.5455 13.4743C51.1569 13.4758 51.7626 13.3565 52.3277 13.1232C52.8928 12.89 53.4063 12.5473 53.8386 12.115C54.2709 11.6827 54.6136 11.1692 54.8468 10.6041C55.0801 10.039 55.1994 9.43331 55.1979 8.82193Z" fill="#EBB98A"/>
<path fill-rule="evenodd" clip-rule="evenodd" d="M55.0845 8.82207C55.087 8.22517 54.9713 7.63368 54.7441 7.08173C54.5168 6.52977 54.1825 6.02827 53.7605 5.60617C53.3384 5.18407 52.837 4.84972 52.2851 4.62241C51.7331 4.3951 51.1416 4.27933 50.5447 4.28178C48.0219 4.28178 46.0039 6.2992 46.0039 8.82207C46.0039 11.3449 48.0219 13.419 50.5447 13.419C53.0665 13.419 55.0845 11.3449 55.0845 8.82207Z" fill="#EBBB8C"/>
<path fill-rule="evenodd" clip-rule="evenodd" d="M55.0275 8.82166C55.0275 6.35537 53.0107 4.3374 50.5444 4.3374C48.0775 4.3374 46.0596 6.35483 46.0596 8.82166C46.0596 11.344 48.0775 13.3065 50.5444 13.3065C53.0107 13.3065 55.0275 11.3445 55.0275 8.82166Z" fill="#EBBB8C"/>
<path fill-rule="evenodd" clip-rule="evenodd" d="M54.9733 8.82178C54.9733 6.41153 53.0119 4.39355 50.5451 4.39355C48.0782 4.39355 46.1163 6.41098 46.1163 8.82178C46.1128 9.40431 46.225 9.98175 46.4464 10.5206C46.6677 11.0595 46.9938 11.549 47.4058 11.9609C47.8177 12.3728 48.3073 12.6989 48.8462 12.9201C49.3851 13.1414 49.9625 13.2535 50.5451 13.25C51.1276 13.2535 51.705 13.1414 52.2438 12.9201C52.7827 12.6988 53.2723 12.3728 53.6842 11.9609C54.0961 11.549 54.4221 11.0594 54.6434 10.5206C54.8647 9.98171 54.9768 9.40429 54.9733 8.82178Z" fill="#ECBD8F"/>
<path fill-rule="evenodd" clip-rule="evenodd" d="M54.9162 8.822C54.9162 6.41175 52.9548 4.50586 50.5446 4.50586C48.1338 4.50586 46.1719 6.41121 46.1719 8.822C46.1719 11.2328 48.1338 13.1947 50.5446 13.1947C52.9548 13.1947 54.9162 11.2328 54.9162 8.822Z" fill="#ECBD90"/>
<path fill-rule="evenodd" clip-rule="evenodd" d="M54.8048 8.82162C54.8051 8.26219 54.6951 7.70819 54.4812 7.19127C54.2673 6.67435 53.9536 6.20465 53.5581 5.80902C53.1626 5.41339 52.6929 5.09959 52.1761 4.88554C51.6592 4.67148 51.1052 4.56138 50.5458 4.56152C49.9862 4.56124 49.4321 4.67123 48.9151 4.88521C48.3981 5.09919 47.9283 5.41297 47.5326 5.8086C47.1369 6.20424 46.8231 6.67398 46.6091 7.19097C46.395 7.70796 46.2849 8.26207 46.2852 8.82162C46.2852 11.1758 48.191 13.1378 50.5458 13.1378C52.8995 13.1378 54.8048 11.1758 54.8048 8.82162Z" fill="#ECBF93"/>
<path fill-rule="evenodd" clip-rule="evenodd" d="M54.7485 8.82174C54.7485 6.52357 52.8421 4.61768 50.5444 4.61768C48.1897 4.61768 46.3398 6.52357 46.3398 8.82174C46.3398 11.1759 48.1897 13.0258 50.5444 13.0258C52.8421 13.0258 54.7485 11.1759 54.7485 8.82174Z" fill="#ECBF93"/>
<path fill-rule="evenodd" clip-rule="evenodd" d="M54.6916 8.82185C54.6916 6.52368 52.8417 4.67383 50.5441 4.67383C48.2454 4.67383 46.3955 6.52314 46.3955 8.82185C46.3955 11.1206 48.2454 12.9699 50.5441 12.9699C51.0891 12.9711 51.629 12.8646 52.1328 12.6566C52.6366 12.4486 53.0943 12.1431 53.4797 11.7576C53.8651 11.3722 54.1705 10.9144 54.3785 10.4106C54.5865 9.90683 54.6928 9.36689 54.6916 8.82185Z" fill="#EDC195"/>
<path fill-rule="evenodd" clip-rule="evenodd" d="M54.6361 8.82202C54.6361 6.57989 52.7873 4.78662 50.5447 4.78662C48.302 4.78662 46.4521 6.58043 46.4521 8.82202C46.4521 11.0642 48.302 12.914 50.5447 12.914C52.7868 12.914 54.6361 11.0642 54.6361 8.82202Z" fill="#EDC196"/>
<path fill-rule="evenodd" clip-rule="evenodd" d="M54.5243 8.8217C54.5243 6.63561 52.7304 4.8418 50.5449 4.8418C48.3583 4.8418 46.5645 6.63561 46.5645 8.8217C46.5645 11.0638 48.3583 12.8576 50.5449 12.8576C52.731 12.8576 54.5243 11.0638 54.5243 8.8217Z" fill="#EEC397"/>
<path fill-rule="evenodd" clip-rule="evenodd" d="M54.4699 8.82176C54.4699 6.69171 52.7326 4.89844 50.5466 4.89844C48.3599 4.89844 46.6221 6.69225 46.6221 8.82176C46.619 9.33798 46.7183 9.8497 46.9144 10.3272C47.1105 10.8048 47.3995 11.2386 47.7645 11.6036C48.1296 11.9686 48.5635 12.2575 49.041 12.4536C49.5186 12.6496 50.0303 12.7489 50.5466 12.7456C51.0627 12.7488 51.5744 12.6495 52.0518 12.4534C52.5293 12.2573 52.9631 11.9684 53.328 11.6034C53.693 11.2384 53.9819 10.8046 54.1779 10.3271C54.3739 9.84957 54.4731 9.33791 54.4699 8.82176Z" fill="#EEC399"/>
<path fill-rule="evenodd" clip-rule="evenodd" d="M54.4119 8.82192C54.4119 6.69187 52.6746 4.9541 50.5451 4.9541C48.4145 4.9541 46.6768 6.69187 46.6768 8.82192C46.6768 10.9525 48.4145 12.6897 50.5451 12.6897C52.6746 12.6897 54.4119 10.9525 54.4119 8.82192Z" fill="#EEC59B"/>
<path fill-rule="evenodd" clip-rule="evenodd" d="M54.3554 8.82166C54.3554 6.74765 52.6182 5.06592 50.5447 5.06592C48.4702 5.06592 46.7324 6.74765 46.7324 8.82166C46.7324 10.9523 48.4702 12.6335 50.5447 12.6335C52.6182 12.6335 54.3554 10.9523 54.3554 8.82166Z" fill="#EEC69D"/>
<path fill-rule="evenodd" clip-rule="evenodd" d="M54.2441 8.82177C54.2441 6.80435 52.6184 5.12207 50.545 5.12207C48.4704 5.12207 46.8447 6.8038 46.8447 8.82177C46.8447 10.8958 48.4704 12.5775 50.545 12.5775C52.6184 12.5775 54.2441 10.8958 54.2441 8.82177Z" fill="#EEC69F"/>
<path fill-rule="evenodd" clip-rule="evenodd" d="M54.1872 8.8219C54.1881 8.34323 54.0945 7.8691 53.9118 7.42668C53.7291 6.98426 53.4609 6.58226 53.1224 6.24374C52.784 5.90523 52.3821 5.63685 51.9397 5.454C51.4974 5.27116 51.0233 5.17744 50.5446 5.17823C50.0658 5.17723 49.5915 5.27079 49.149 5.45353C48.7064 5.63628 48.3043 5.90462 47.9657 6.24316C47.6271 6.5817 47.3587 6.98377 47.1759 7.4263C46.9931 7.86882 46.8995 8.3431 46.9004 8.8219C46.8995 9.3007 46.9931 9.77497 47.1759 10.2175C47.3587 10.66 47.6271 11.0621 47.9657 11.4006C48.3043 11.7392 48.7064 12.0075 49.149 12.1903C49.5915 12.373 50.0658 12.4666 50.5446 12.4656C51.0233 12.4664 51.4974 12.3728 51.9398 12.1899C52.3822 12.0071 52.7842 11.7387 53.1226 11.4002C53.461 11.0617 53.7293 10.6597 53.912 10.2172C54.0947 9.77475 54.1882 9.30058 54.1872 8.8219Z" fill="#EFC89F"/>
<path fill-rule="evenodd" clip-rule="evenodd" d="M54.1328 8.82194C54.1328 6.86055 52.5071 5.23486 50.5452 5.23486C48.5827 5.23486 46.957 6.86055 46.957 8.82194C46.9556 9.29352 47.0474 9.76074 47.2273 10.1967C47.4071 10.6326 47.6713 11.0287 48.0048 11.3622C48.3383 11.6956 48.7344 11.9598 49.1704 12.1396C49.6064 12.3193 50.0736 12.4111 50.5452 12.4096C51.0168 12.411 51.4839 12.3192 51.9198 12.1394C52.3558 11.9596 52.7518 11.6954 53.0853 11.362C53.4187 11.0286 53.6829 10.6325 53.8627 10.1966C54.0425 9.76065 54.1343 9.29348 54.1328 8.82194Z" fill="#EFC8A1"/>
<path fill-rule="evenodd" clip-rule="evenodd" d="M54.0749 8.82168C54.0749 6.91633 52.5053 5.34668 50.5439 5.34668C48.5814 5.34668 47.0117 6.91633 47.0117 8.82168C47.0098 9.28605 47.0998 9.7462 47.2767 10.1756C47.4535 10.605 47.7136 10.9951 48.042 11.3234C48.3704 11.6518 48.7605 11.9118 49.1899 12.0886C49.6193 12.2653 50.0795 12.3553 50.5439 12.3533C51.0082 12.3551 51.4682 12.2651 51.8975 12.0882C52.3268 11.9114 52.7168 11.6514 53.0451 11.323C53.3733 10.9947 53.6333 10.6046 53.8101 10.1753C53.9869 9.74602 54.0769 9.28596 54.0749 8.82168Z" fill="#EFCAA3"/>
<path fill-rule="evenodd" clip-rule="evenodd" d="M53.9616 8.82187C53.9645 8.3721 53.8782 7.92622 53.7074 7.51011C53.5367 7.094 53.285 6.71595 52.967 6.39788C52.649 6.07982 52.271 5.82808 51.8549 5.65728C51.4388 5.48648 50.9929 5.40001 50.5432 5.40291C50.0933 5.39994 49.6473 5.48635 49.2311 5.6571C48.8149 5.82786 48.4368 6.07957 48.1186 6.39762C47.8004 6.71568 47.5486 7.09376 47.3777 7.50991C47.2068 7.92606 47.1203 8.372 47.1231 8.82187C47.1231 10.7278 48.6367 12.2974 50.5432 12.2974C52.4485 12.2974 53.9616 10.7283 53.9616 8.82187Z" fill="#EFCAA3"/>
<path fill-rule="evenodd" clip-rule="evenodd" d="M53.908 8.82191C53.908 6.97205 52.395 5.45898 50.5457 5.45898C48.6953 5.45898 47.1816 6.97205 47.1816 8.82191C47.1816 10.6718 48.6953 12.1854 50.5457 12.1854C52.3944 12.1854 53.908 10.6718 53.908 8.82191Z" fill="#F0CCA6"/>
<path fill-rule="evenodd" clip-rule="evenodd" d="M53.8512 8.82202C53.8512 7.02875 52.337 5.51514 50.5443 5.51514C48.6939 5.51514 47.2363 7.02875 47.2363 8.82202C47.2363 10.6719 48.6939 12.1294 50.5443 12.1294C52.337 12.1294 53.8512 10.6719 53.8512 8.82202Z" fill="#F0CCA8"/>
<path fill-rule="evenodd" clip-rule="evenodd" d="M53.7957 8.82175C53.7957 7.02849 52.3376 5.62695 50.5449 5.62695C48.7511 5.62695 47.293 7.02849 47.293 8.82175C47.2935 9.68399 47.6364 10.5107 48.2461 11.1204C48.8559 11.73 49.6827 12.0727 50.5449 12.0731C51.407 12.0724 52.2335 11.7296 52.843 11.12C53.4525 10.5104 53.7952 9.68381 53.7957 8.82175Z" fill="#F1CEAA"/>
<path fill-rule="evenodd" clip-rule="evenodd" d="M53.6833 8.82187C53.6841 8.40951 53.6035 8.00105 53.4461 7.61991C53.2887 7.23878 53.0575 6.89248 52.766 6.60087C52.4744 6.30925 52.1282 6.07808 51.747 5.92059C51.3659 5.7631 50.9575 5.68239 50.5451 5.68311C48.8068 5.68311 47.4053 7.0841 47.4053 8.82187C47.4053 10.5596 48.8068 12.0172 50.5451 12.0172C52.2824 12.0172 53.6833 10.5596 53.6833 8.82187Z" fill="#F1CEAA"/>
<path fill-rule="evenodd" clip-rule="evenodd" d="M53.6279 8.82204C53.6279 7.14085 52.2264 5.73877 50.5452 5.73877C48.8629 5.73877 47.4619 7.14031 47.4619 8.82204C47.4607 9.22728 47.5396 9.62877 47.6941 10.0034C47.8487 10.378 48.0757 10.7184 48.3623 11.005C48.6488 11.2915 48.9892 11.5186 49.3638 11.6731C49.7385 11.8276 50.14 11.9065 50.5452 11.9053C50.9504 11.9065 51.3518 11.8275 51.7264 11.6729C52.101 11.5184 52.4413 11.2913 52.7278 11.0048C53.0143 10.7182 53.2413 10.3779 53.3958 10.0033C53.5502 9.62868 53.6291 9.22724 53.6279 8.82204Z" fill="#F1D0AD"/>
<path fill-rule="evenodd" clip-rule="evenodd" d="M53.572 8.82161C53.572 7.19591 52.2265 5.79492 50.5458 5.79492C48.8635 5.79492 47.5186 7.19591 47.5186 8.82161C47.5169 9.21963 47.594 9.61406 47.7455 9.98212C47.897 10.3502 48.1199 10.6846 48.4014 10.966C48.6828 11.2475 49.0172 11.4704 49.3853 11.6219C49.7534 11.7734 50.1478 11.8506 50.5458 11.8488C50.9437 11.8504 51.3381 11.7732 51.706 11.6216C52.0739 11.47 52.4082 11.2471 52.6895 10.9656C52.9709 10.6842 53.1937 10.3499 53.3451 9.98186C53.4966 9.61388 53.5737 9.21954 53.572 8.82161Z" fill="#F1D0AE"/>
<path fill-rule="evenodd" clip-rule="evenodd" d="M53.5155 8.82183C53.5155 7.19614 52.17 5.90723 50.5454 5.90723C48.9197 5.90723 47.5742 7.19614 47.5742 8.82183C47.5742 10.4475 48.9197 11.7925 50.5454 11.7925C52.17 11.7925 53.5155 10.447 53.5155 8.82183Z" fill="#F2D2B1"/>
<path fill-rule="evenodd" clip-rule="evenodd" d="M53.4042 8.82194C53.4042 7.25283 52.1142 5.96338 50.5456 5.96338C48.976 5.96338 47.6865 7.25283 47.6865 8.82194C47.6865 10.4476 48.9765 11.7366 50.5456 11.7366C52.1142 11.7366 53.4042 10.4471 53.4042 8.82194Z" fill="#F2D2B3"/>
<path fill-rule="evenodd" clip-rule="evenodd" d="M53.3463 8.82206C53.3463 7.30844 52.1123 6.01953 50.5443 6.01953C48.9746 6.01953 47.7412 7.30844 47.7412 8.82206C47.7412 10.3917 48.9752 11.6246 50.5443 11.6246C52.1128 11.6246 53.3463 10.3912 53.3463 8.82206Z" fill="#F3D4B4"/>
<path fill-rule="evenodd" clip-rule="evenodd" d="M53.2898 8.82168C53.2888 8.09367 52.9992 7.39576 52.4845 6.88093C51.9698 6.36609 51.2719 6.07635 50.5439 6.0752C49.0297 6.0752 47.7969 7.30861 47.7969 8.82168C47.7969 10.3348 49.0297 11.5682 50.5439 11.5682C51.2719 11.5669 51.9696 11.2771 52.4843 10.7623C52.999 10.2475 53.2887 9.54965 53.2898 8.82168Z" fill="#F3D4B5"/>
<path fill-rule="evenodd" clip-rule="evenodd" d="M53.2348 8.82191C53.2348 7.36487 52.002 6.1875 50.5455 6.1875C49.0874 6.1875 47.8545 7.36487 47.8545 8.82191C47.8545 10.3355 49.0879 11.5124 50.5455 11.5124C52.0025 11.5124 53.2348 10.335 53.2348 8.82191Z" fill="#F3D4B7"/>
<path fill-rule="evenodd" clip-rule="evenodd" d="M53.1226 8.82203C53.1235 8.48322 53.0575 8.14756 52.9283 7.83436C52.799 7.52115 52.6092 7.23657 52.3697 6.99696C52.1301 6.75736 51.8456 6.56746 51.5324 6.43819C51.2192 6.30891 50.8836 6.2428 50.5447 6.24366C50.2058 6.24266 49.8701 6.30866 49.5568 6.43787C49.2435 6.56709 48.9588 6.75696 48.7191 6.99658C48.4795 7.23619 48.2895 7.52082 48.1602 7.8341C48.031 8.14738 47.9649 8.48313 47.9658 8.82203C47.9658 10.2796 49.0872 11.4564 50.5447 11.4564C52.0018 11.4564 53.1226 10.2791 53.1226 8.82203Z" fill="#F3D6B8"/>
<path fill-rule="evenodd" clip-rule="evenodd" d="M53.0671 8.82166C53.0685 8.49009 53.0042 8.16152 52.878 7.85492C52.7517 7.54831 52.566 7.26974 52.3316 7.03525C52.0971 6.80077 51.8186 6.61501 51.512 6.48871C51.2055 6.3624 50.8769 6.29804 50.5453 6.29934C49.1438 6.29934 48.0225 7.42067 48.0225 8.82166C48.0225 10.2227 49.1438 11.344 50.5453 11.344C50.8769 11.3453 51.2055 11.2809 51.512 11.1546C51.8186 11.0283 52.0971 10.8426 52.3316 10.6081C52.566 10.3736 52.7517 10.095 52.878 9.78841C53.0042 9.4818 53.0685 9.15324 53.0671 8.82166Z" fill="#F4D8BA"/>
<path fill-rule="evenodd" clip-rule="evenodd" d="M53.0112 8.82176C53.0112 7.47626 51.8899 6.35547 50.545 6.35547C49.2 6.35547 48.0781 7.4768 48.0781 8.82176C48.0781 10.2233 49.2 11.288 50.545 11.288C51.8899 11.288 53.0112 10.2227 53.0112 8.82176Z" fill="#F4D9BC"/>
<path fill-rule="evenodd" clip-rule="evenodd" d="M52.9539 8.82198C52.9539 7.53252 51.8891 6.46777 50.5436 6.46777C49.1981 6.46777 48.1328 7.53252 48.1328 8.82198C48.1328 10.1675 49.1981 11.2322 50.5436 11.2322C51.8891 11.2322 52.9539 10.1669 52.9539 8.82198Z" fill="#F4D9BE"/>
<path fill-rule="evenodd" clip-rule="evenodd" d="M52.8415 8.82161C52.8415 7.53215 51.8327 6.52344 50.5438 6.52344C49.2538 6.52344 48.2451 7.53215 48.2451 8.82161C48.2451 10.1111 49.2538 11.1758 50.5438 11.1758C51.8327 11.1758 52.8415 10.1105 52.8415 8.82161Z" fill="#F4DBBF"/>
<path fill-rule="evenodd" clip-rule="evenodd" d="M52.7856 8.82172C52.7839 8.2276 52.5471 7.65831 52.127 7.2382C51.7069 6.81809 51.1376 6.58131 50.5435 6.57959C49.3095 6.57959 48.3008 7.5883 48.3008 8.82172C48.3008 10.0551 49.3095 11.0638 50.5435 11.0638C51.1376 11.0621 51.7069 10.8253 52.127 10.4052C52.5471 9.98513 52.7839 9.41584 52.7856 8.82172Z" fill="#F4DBC0"/>
<path fill-rule="evenodd" clip-rule="evenodd" d="M52.7311 8.82183C52.7311 7.64445 51.7219 6.63574 50.545 6.63574C49.3677 6.63574 48.3584 7.64445 48.3584 8.82183C48.3584 10.0552 49.3677 11.0079 50.545 11.0079C51.7213 11.0079 52.7311 10.0552 52.7311 8.82183Z" fill="#F5DDC3"/>
<path fill-rule="evenodd" clip-rule="evenodd" d="M52.6751 8.82206C52.6751 7.70072 51.7219 6.74805 50.5456 6.74805C49.3683 6.74805 48.415 7.70072 48.415 8.82206C48.415 9.38698 48.6395 9.92877 49.0389 10.3282C49.4384 10.7277 49.9802 10.9521 50.5451 10.9521C51.11 10.9521 51.6518 10.7277 52.0513 10.3282C52.4507 9.92877 52.6751 9.38698 52.6751 8.82206Z" fill="#F5DDC3"/>
<path fill-rule="evenodd" clip-rule="evenodd" d="M52.5637 8.82212C52.5637 7.70078 51.6682 6.80469 50.5468 6.80469C49.4255 6.80469 48.5283 7.70132 48.5283 8.82212C48.5283 9.94291 49.4255 10.8961 50.5468 10.8961C51.6682 10.8961 52.5637 9.94345 52.5637 8.82212Z" fill="#F6DFC6"/>
<path fill-rule="evenodd" clip-rule="evenodd" d="M52.5069 8.82174C52.5069 7.75644 51.6102 6.86035 50.5455 6.86035C49.4796 6.86035 48.583 7.75698 48.583 8.82174C48.583 9.94307 49.4796 10.7837 50.5455 10.7837C51.6102 10.7837 52.5069 9.94307 52.5069 8.82174Z" fill="#F6DFC7"/>
<path fill-rule="evenodd" clip-rule="evenodd" d="M52.4495 8.82185C52.4495 7.81314 51.609 6.9165 50.5442 6.9165C49.4784 6.9165 48.6378 7.81314 48.6378 8.82185C48.6357 9.07277 48.6835 9.3216 48.7786 9.55381C48.8737 9.78603 49.014 9.997 49.1915 10.1744C49.3689 10.3518 49.5799 10.4921 49.8122 10.5871C50.0444 10.6821 50.2933 10.7299 50.5442 10.7277C50.795 10.7298 51.0437 10.6819 51.2759 10.5868C51.508 10.4917 51.7189 10.3514 51.8962 10.174C52.0735 9.99662 52.2138 9.78571 52.3088 9.55356C52.4038 9.32141 52.4517 9.07268 52.4495 8.82185Z" fill="#F6E1CA"/>
<path fill-rule="evenodd" clip-rule="evenodd" d="M52.3925 8.82159C52.3925 7.81287 51.5519 7.02832 50.5438 7.02832C49.5345 7.02832 48.6934 7.81287 48.6934 8.82159C48.6934 9.83085 49.534 10.6714 50.5438 10.6714C51.5525 10.6714 52.3925 9.83085 52.3925 8.82159Z" fill="#F6E1CC"/>
<path fill-rule="evenodd" clip-rule="evenodd" d="M52.2812 8.82176C52.2789 8.36167 52.0952 7.92107 51.7699 7.59569C51.4446 7.2703 51.0041 7.08642 50.544 7.08398C50.0837 7.08613 49.6429 7.26989 49.3174 7.5953C48.9919 7.92072 48.808 8.36148 48.8057 8.82176C48.8057 9.83102 49.5908 10.6156 50.544 10.6156C51.4961 10.6156 52.2812 9.83102 52.2812 8.82176Z" fill="#F7E3CD"/>
<path fill-rule="evenodd" clip-rule="evenodd" d="M52.2277 8.82181C52.2277 7.92518 51.4987 7.14062 50.5465 7.14062C49.5933 7.14062 48.8643 7.92518 48.8643 8.82181C48.8643 9.77449 49.5933 10.5035 50.5465 10.5035C51.4987 10.5035 52.2277 9.77449 52.2277 8.82181Z" fill="#F7E3CF"/>
<path fill-rule="evenodd" clip-rule="evenodd" d="M52.1697 8.82198C52.1694 8.3911 51.9982 7.97793 51.6936 7.67315C51.3891 7.36836 50.976 7.19687 50.5451 7.19629C50.1212 7.20726 49.7184 7.38335 49.4225 7.68703C49.1265 7.99071 48.9609 8.39796 48.9609 8.82198C48.9609 9.246 49.1265 9.65326 49.4225 9.95694C49.7184 10.2606 50.1212 10.4367 50.5451 10.4477C50.976 10.4472 51.3892 10.2758 51.6938 9.97098C51.9984 9.66617 52.1696 9.25291 52.1697 8.82198Z" fill="#F7E3D0"/>
<path fill-rule="evenodd" clip-rule="evenodd" d="M52.1138 8.82172C52.1138 7.98112 51.3858 7.30811 50.5452 7.30811C49.7036 7.30811 48.9756 7.98112 48.9756 8.82172C48.9752 9.02797 49.0155 9.23228 49.0942 9.42291C49.1729 9.61354 49.2885 9.78675 49.4344 9.93259C49.5802 10.0784 49.7534 10.194 49.9441 10.2728C50.1347 10.3515 50.339 10.3918 50.5452 10.3914C50.7514 10.3917 50.9556 10.3514 51.1462 10.2726C51.3367 10.1938 51.5098 10.0782 51.6556 9.93237C51.8013 9.78652 51.9168 9.61334 51.9955 9.42274C52.0741 9.23215 52.1143 9.0279 52.1138 8.82172Z" fill="#F8E5D1"/>
<path fill-rule="evenodd" clip-rule="evenodd" d="M52.0021 8.82181C52.0021 8.03726 51.3857 7.36479 50.5451 7.36479C50.3533 7.36334 50.1631 7.40003 49.9856 7.47273C49.8081 7.54543 49.6469 7.65267 49.5112 7.78825C49.3755 7.92382 49.2681 8.08501 49.1953 8.26244C49.1225 8.43988 49.0856 8.63002 49.0869 8.82181C49.0869 9.66241 49.7034 10.3354 50.5451 10.3354C51.3857 10.3354 52.0021 9.66295 52.0021 8.82181Z" fill="#F8E8D4"/>
<path fill-rule="evenodd" clip-rule="evenodd" d="M51.9446 8.82201C51.9465 8.63753 51.9116 8.45452 51.8419 8.28369C51.7722 8.11287 51.6691 7.95766 51.5387 7.82715C51.4083 7.69664 51.2532 7.59346 51.0824 7.52363C50.9117 7.4538 50.7287 7.41873 50.5442 7.42048C50.3596 7.41866 50.1766 7.45367 50.0057 7.52346C49.8348 7.59325 49.6796 7.69642 49.5491 7.82693C49.4186 7.95744 49.3154 8.11266 49.2456 8.28352C49.1758 8.45439 49.1408 8.63745 49.1427 8.82201C49.1408 9.00659 49.1757 9.18969 49.2455 9.36059C49.3152 9.53148 49.4184 9.68674 49.5489 9.81727C49.6795 9.94779 49.8347 10.051 50.0056 10.1207C50.1765 10.1905 50.3596 10.2254 50.5442 10.2235C50.7287 10.2253 50.9117 10.1902 51.0824 10.1204C51.2532 10.0506 51.4083 9.94738 51.5387 9.81687C51.6691 9.68636 51.7722 9.53116 51.8419 9.36033C51.9116 9.18951 51.9465 9.0065 51.9446 8.82201Z" fill="#F8E8D6"/>
<path fill-rule="evenodd" clip-rule="evenodd" d="M51.8902 8.82168C51.8902 8.09316 51.2727 7.53223 50.5447 7.53223C49.8157 7.53223 49.1992 8.09262 49.1992 8.82168C49.1992 9.55074 49.8157 10.1672 50.5447 10.1672C51.2727 10.1672 51.8902 9.55074 51.8902 8.82168Z" fill="#F8E8D8"/>
<path fill-rule="evenodd" clip-rule="evenodd" d="M51.8348 8.82179C51.8348 8.14932 51.2172 7.58838 50.5459 7.58838C49.8723 7.58838 49.2559 8.14932 49.2559 8.82179C49.2559 9.55031 49.8723 10.1113 50.5459 10.1113C51.2172 10.1113 51.8348 9.55085 51.8348 8.82179Z" fill="#F9EAD9"/>
<path fill-rule="evenodd" clip-rule="evenodd" d="M51.7228 8.8219C51.7228 8.20547 51.2179 7.64453 50.5465 7.64453C49.873 7.64453 49.3691 8.20492 49.3691 8.8219C49.3691 9.49493 49.873 10.0553 50.5465 10.0553C51.2179 10.0553 51.7228 9.49493 51.7228 8.8219Z" fill="#FAECDC"/>
<path fill-rule="evenodd" clip-rule="evenodd" d="M51.6655 8.82202C51.6645 8.52493 51.5461 8.2403 51.336 8.03022C51.1259 7.82015 50.8413 7.70169 50.5442 7.70068C49.9267 7.70068 49.4229 8.20504 49.4229 8.82202C49.4229 9.439 49.9267 9.94336 50.5442 9.94336C50.8413 9.9425 51.126 9.82408 51.3361 9.61398C51.5462 9.40387 51.6647 9.11915 51.6655 8.82202Z" fill="#FAECDD"/>
<path fill-rule="evenodd" clip-rule="evenodd" d="M51.6101 8.8217C51.6101 8.2613 51.1052 7.81299 50.5453 7.81299C49.9844 7.81299 49.4795 8.2613 49.4795 8.8217C49.4795 9.43814 49.9844 9.887 50.5453 9.887C50.6852 9.887 50.8237 9.85944 50.9529 9.8059C51.0821 9.75235 51.1995 9.67388 51.2984 9.57495C51.3973 9.47602 51.4757 9.35858 51.5292 9.22933C51.5827 9.10009 51.6102 8.96157 51.6101 8.8217Z" fill="#FAECDF"/>
<path fill-rule="evenodd" clip-rule="evenodd" d="M51.5531 8.82181C51.5531 8.31746 51.1048 7.86914 50.5444 7.86914C49.9835 7.86914 49.5352 8.31746 49.5352 8.82181C49.5352 9.38276 49.9835 9.83107 50.5444 9.83107C50.6771 9.83158 50.8085 9.80581 50.9312 9.75527C51.0538 9.70472 51.1652 9.63039 51.259 9.53656C51.3528 9.44273 51.427 9.33127 51.4775 9.2086C51.528 9.08592 51.5537 8.95447 51.5531 8.82181Z" fill="#FAEEE0"/>
<path fill-rule="evenodd" clip-rule="evenodd" d="M51.4408 8.82192C51.4408 8.31757 51.0475 7.92529 50.5442 7.92529C50.0393 7.92529 49.6465 8.31757 49.6465 8.82192C49.6465 9.32628 50.0398 9.7746 50.5442 9.7746C51.048 9.7746 51.4408 9.32628 51.4408 8.82192Z" fill="#FBF0E3"/>
<path fill-rule="evenodd" clip-rule="evenodd" d="M51.3854 8.82204C51.3854 8.37372 50.992 7.98145 50.5448 7.98145C50.0965 7.98145 49.7031 8.37372 49.7031 8.82204C49.7031 9.3264 50.0965 9.66264 50.5448 9.66264C50.992 9.66264 51.3854 9.3264 51.3854 8.82204Z" fill="#FBF1E5"/>
<path fill-rule="evenodd" clip-rule="evenodd" d="M51.3289 8.82178C51.3289 8.4295 50.9921 8.09326 50.5449 8.09326C50.0965 8.09326 49.7598 8.4295 49.7598 8.82178C49.7598 9.27064 50.0965 9.60688 50.5449 9.60688C50.9921 9.60688 51.3289 9.27064 51.3289 8.82178Z" fill="#FBF1E7"/>
<path fill-rule="evenodd" clip-rule="evenodd" d="M51.2734 8.82189C51.2734 8.42961 50.9377 8.14941 50.5455 8.14941C50.1521 8.14941 49.8164 8.42961 49.8164 8.82189C49.8164 9.21471 50.1521 9.55041 50.5455 9.55041C50.9377 9.55041 51.2734 9.21417 51.2734 8.82189Z" fill="#FCF3E8"/>
<path fill-rule="evenodd" clip-rule="evenodd" d="M51.1617 8.822C51.1617 8.48576 50.8809 8.20557 50.5453 8.20557C50.2085 8.20557 49.9277 8.48631 49.9277 8.822C49.9277 9.21482 50.2085 9.49502 50.5453 9.49502C50.8809 9.49502 51.1617 9.21482 51.1617 8.822Z" fill="#FCF3EA"/>
<path fill-rule="evenodd" clip-rule="evenodd" d="M51.1032 8.82211C51.1032 8.54192 50.8791 8.26172 50.5434 8.26172C50.2066 8.26172 49.9824 8.54192 49.9824 8.82211C49.9824 9.1589 50.2066 9.38306 50.5434 9.38306C50.8791 9.38306 51.1032 9.1589 51.1032 8.82211Z" fill="#FCF5ED"/>
<path fill-rule="evenodd" clip-rule="evenodd" d="M51.0478 8.82185C51.0478 8.54165 50.8236 8.37354 50.544 8.37354C50.2632 8.37354 50.0391 8.54165 50.0391 8.82185C50.0391 9.10205 50.2632 9.32621 50.544 9.32621C50.6102 9.32643 50.6759 9.31353 50.7371 9.28825C50.7984 9.26297 50.8541 9.22582 50.9009 9.17894C50.9477 9.13205 50.9848 9.07636 51.01 9.01507C51.0352 8.95379 51.0481 8.88812 51.0478 8.82185Z" fill="#FCF5EF"/>
<path fill-rule="evenodd" clip-rule="evenodd" d="M50.9922 8.82197C50.9922 8.59781 50.7681 8.42969 50.545 8.42969C50.3208 8.42969 50.0967 8.59835 50.0967 8.82197C50.0967 9.04612 50.3208 9.27083 50.545 9.27083C50.7681 9.27083 50.9922 9.04612 50.9922 8.82197Z" fill="#FDF8F1"/>
<path fill-rule="evenodd" clip-rule="evenodd" d="M50.8815 8.82208C50.8815 8.65396 50.7133 8.48584 50.5458 8.48584C50.3766 8.48584 50.209 8.65396 50.209 8.82208C50.209 9.04623 50.3771 9.2149 50.5458 9.2149C50.7139 9.2149 50.8815 9.04623 50.8815 8.82208Z" fill="#FDF8F3"/>
<path fill-rule="evenodd" clip-rule="evenodd" d="M50.825 8.8217C50.825 8.70962 50.7135 8.5415 50.5454 8.5415C50.3762 8.5415 50.2646 8.70962 50.2646 8.8217C50.2646 8.98982 50.3762 9.1019 50.5454 9.1019C50.7135 9.1019 50.825 8.98982 50.825 8.8217Z" fill="#FDF8F5"/>
<path fill-rule="evenodd" clip-rule="evenodd" d="M50.7675 8.82193C50.7675 8.70985 50.656 8.65381 50.5445 8.65381C50.4318 8.65381 50.3203 8.70985 50.3203 8.82193C50.3203 8.93401 50.4318 9.04609 50.5445 9.04609C50.656 9.04609 50.7675 8.93401 50.7675 8.82193Z" fill="#FEFBF6"/>
<path fill-rule="evenodd" clip-rule="evenodd" d="M50.6574 8.82232C50.6574 8.76614 50.6007 8.70996 50.5456 8.70996C50.4889 8.70996 50.376 8.76614 50.376 8.82232C50.376 8.93468 50.4889 8.99087 50.5456 8.99087C50.6012 8.99087 50.6574 8.93468 50.6574 8.82232Z" fill="#FFFFFB"/>
<path fill-rule="evenodd" clip-rule="evenodd" d="M50.6006 8.8218C50.6006 8.8218 50.6006 8.76562 50.545 8.76562C50.4883 8.76562 50.4883 8.8218 50.4883 8.8218C50.4883 8.87799 50.4883 8.93417 50.545 8.93417C50.6006 8.93417 50.6006 8.87799 50.6006 8.8218Z" fill="white"/>
<path fill-rule="evenodd" clip-rule="evenodd" d="M65.1736 11.4009L61.1937 1.31104H57.9423L64.333 16.7257H65.9026L72.4049 1.31104H69.2095L65.1736 11.4009ZM73.7504 16.334H82.0464V13.8111H76.665V9.7752H81.8217V7.19683H76.665V3.88941H82.0464V1.31104H73.7504V16.334ZM93.6493 5.73926C93.6493 2.93673 91.7429 1.31104 88.3245 1.31104H84.0078V16.3335H86.9224V10.3356H87.3147L91.3506 16.3335H94.9383L90.2299 9.99881C92.4154 9.55104 93.6493 8.03743 93.6493 5.73926ZM87.763 8.26213H86.9224V3.66579H87.8191C89.6689 3.66579 90.621 4.45035 90.621 5.90792C90.6216 7.42099 89.6694 8.26213 87.763 8.26213ZM1.43528 20.7448V22.0909H3.09743V22.6355H1.43528V24.9804H0.837891V20.1997H3.15184V20.7448H1.43528ZM5.88037 20.1997H6.47831V24.9804H5.88037V20.1997ZM9.36462 19.9701L12.9501 23.7323V20.1997H13.5475V25.1774L9.95821 21.4173V24.9804H9.36462V19.9701ZM19.0747 23.2378H17.3718L18.2227 21.302L19.0747 23.2378ZM19.3196 23.7829L19.8647 24.9804H20.5078L18.2232 19.9967L15.9398 24.9804H16.5801L17.1269 23.7829H19.3196ZM22.899 19.9701L26.4883 23.7323V20.1997H27.0862V25.1774L23.4926 21.4173V24.9804H22.899V19.9701ZM33.4628 21.1137C33.1227 20.8079 32.6515 20.6442 32.2005 20.6442C31.1314 20.6442 30.3131 21.5381 30.3131 22.5974C30.3131 23.6437 31.1232 24.537 32.1896 24.537C32.6597 24.537 33.108 24.3607 33.4622 24.0425V24.7476C33.0794 24.9644 32.6475 25.0796 32.2076 25.0822C30.8414 25.0822 29.7141 23.9984 29.7141 22.6154C29.7141 21.2008 30.849 20.0963 32.2598 20.0963C32.6793 20.0963 33.1031 20.1997 33.4617 20.4211V21.1137H33.4628ZM36.2065 20.1997H36.8007V24.9804H36.2065V20.1997ZM42.3703 23.2378H40.6679L41.5232 21.302L42.3703 23.2378ZM42.6157 23.7829L43.1625 24.9804H43.8029L41.5232 19.9967L39.2387 24.9804H39.8774L40.4226 23.7829H42.6157ZM46.8475 24.438H48.3008V24.9804H46.2534V20.1997H46.8475V24.438ZM56.7481 21.1072C56.575 20.8074 56.3454 20.6556 55.9809 20.6556C55.5995 20.6556 55.1795 20.9151 55.1795 21.3351C55.1795 21.7078 55.5527 21.9059 55.8487 22.0196L56.1887 22.154C56.8699 22.4189 57.377 22.7944 57.377 23.5925C57.377 24.4625 56.7034 25.0822 55.8487 25.0822C55.0739 25.0822 54.4716 24.5125 54.3726 23.7449L54.9738 23.6192C54.9662 24.1442 55.3851 24.5251 55.896 24.5251C56.4113 24.5251 56.778 24.0952 56.778 23.5925C56.778 23.08 56.3667 22.8569 55.9553 22.6845L55.6267 22.5468C55.0794 22.3118 54.5854 22.0016 54.5854 21.3351C54.5854 20.5604 55.2698 20.0963 55.9945 20.0963C56.525 20.0963 56.9635 20.358 57.2219 20.8199L56.7481 21.1072ZM60.0762 20.1997H62.6464V20.7448H60.6741V22.0849H62.5925V22.6295H60.6741V24.438H62.6464V24.9804H60.0762V20.1997ZM66.0311 20.7323H66.1839C66.7792 20.7323 67.4875 20.84 67.4875 21.5898C67.4875 22.3498 66.8243 22.463 66.2166 22.463H66.0305V20.7323H66.0311ZM66.8983 22.9021C67.5893 22.8183 68.0458 22.2492 68.0458 21.5631C68.0458 21.1072 67.8162 20.6556 67.4157 20.4206C67.0365 20.2056 66.5795 20.1997 66.1567 20.1997H65.4342V24.9804H66.0316V22.9603H66.277L67.685 24.9804H68.4065L66.8983 22.9021ZM72.5028 23.7383L73.9234 20.1997H74.5779L72.5028 25.2367L70.4239 20.1997H71.0773L72.5028 23.7383ZM77.0126 20.1997H77.6095V24.9804H77.0126V20.1997ZM84.0388 21.1137C83.6944 20.8079 83.2227 20.6442 82.77 20.6442C81.702 20.6442 80.8837 21.5381 80.8837 22.5974C80.8837 23.6437 81.6933 24.537 82.7592 24.537C83.2298 24.537 83.6824 24.3607 84.0388 24.0425V24.7476C83.6547 24.9641 83.2218 25.0792 82.7809 25.0822C81.4186 25.0822 80.2858 23.9984 80.2858 22.6154C80.2858 21.2008 81.4262 20.0963 82.831 20.0963C83.2505 20.0963 83.6748 20.1997 84.0394 20.4211V21.1137H84.0388ZM86.7929 20.1997H89.3626V20.7448H87.3914V22.0849H89.306V22.6295H87.3914V24.438H89.3626V24.9804H86.7929V20.1997ZM94.2696 21.1072C94.0955 20.8074 93.867 20.6556 93.5057 20.6556C93.1265 20.6556 92.7065 20.9151 92.7065 21.3351C92.7065 21.7078 93.0764 21.9059 93.3719 22.0196L93.7174 22.154C94.3931 22.4189 94.9002 22.7944 94.9002 23.5925C94.9002 24.4625 94.2277 25.0822 93.3719 25.0822C92.6004 25.0822 91.9937 24.5125 91.8969 23.7449L92.4965 23.6192C92.4888 24.1442 92.911 24.5251 93.423 24.5251C93.9372 24.5251 94.306 24.0952 94.306 23.5925C94.306 23.08 93.8904 22.8569 93.4801 22.6845L93.151 22.5468C92.6036 22.3118 92.1096 22.0016 92.1096 21.3351C92.1096 20.5604 92.7952 20.0963 93.5188 20.0963C94.0492 20.0963 94.4889 20.358 94.7506 20.8199L94.2696 21.1072ZM95.3621 2.64348C95.3621 2.75882 95.2832 2.81975 95.1232 2.81975H95.0688V2.47535H95.1271C95.2859 2.4759 95.3621 2.53031 95.3621 2.64348ZM95.8311 3.55371L95.3953 3.00637C95.5814 2.95849 95.6885 2.82248 95.6885 2.63532C95.6885 2.37634 95.5068 2.22998 95.1836 2.22998H94.762V3.55371H95.0743V3.04119L95.4453 3.55371H95.8311ZM96.3877 2.8894C96.3877 2.25718 95.8735 1.73596 95.2495 1.73596C95.0976 1.73495 94.947 1.76408 94.8065 1.82165C94.6659 1.87923 94.5382 1.96411 94.4307 2.07138C94.3231 2.17865 94.238 2.30618 94.18 2.4466C94.1221 2.58701 94.0927 2.73751 94.0933 2.8894C94.0933 3.53195 94.6096 4.04447 95.2495 4.04447C95.8735 4.04392 96.3877 3.52324 96.3877 2.8894ZM96.1548 2.89266C96.1548 3.41171 95.7468 3.83718 95.244 3.83718C94.738 3.83718 94.3218 3.41389 94.3218 2.89266C94.3218 2.36545 94.7342 1.94651 95.244 1.94651C95.7468 1.94651 96.1548 2.37198 96.1548 2.89266Z" fill="black"/>
</g>
</svg>
