<svg width="96" height="25" viewBox="0 0 96 25" fill="none" xmlns="http://www.w3.org/2000/svg">
<path opacity="0.5" d="M45.475 0.33328C40.1144 0.848809 36.2746 2.25219 33.7901 4.61504C32.5854 5.77498 31.4711 7.7655 31.0947 9.44097C30.8086 10.7584 30.7935 13.465 31.0796 14.7967C31.953 19.0642 35.582 22.1144 41.2588 23.3603C41.8009 23.4748 42.5839 23.6467 42.9905 23.7469C44.4361 24.062 49.2094 24.2195 52.4469 24.0476C54.1183 23.9617 55.7596 23.8328 56.0909 23.7612C56.4222 23.6896 57.1751 23.5464 57.7473 23.4605C60.2921 23.0452 60.9697 22.902 61.2709 22.7588C61.572 22.6013 61.5871 22.4867 61.5871 20.3816C61.5871 19.1358 61.5268 18.1477 61.4365 18.0904C61.3612 18.0474 60.8944 18.205 60.3975 18.4484C59.9006 18.6775 59.4037 18.878 59.2983 18.878C59.1929 18.878 58.9218 18.9639 58.711 19.0785C58.3195 19.2647 57.4461 19.5368 55.865 19.9377C54.7959 20.2098 51.8596 20.5965 50.8357 20.5965C49.7967 20.5965 47.7488 20.2384 46.6797 19.8661C44.2704 19.0212 42.6592 17.4603 41.831 15.1834C41.3642 13.8516 41.3341 10.6582 41.7858 9.35505C43.0357 5.76066 46.2279 3.84174 50.926 3.84174C54.0882 3.84174 57.5817 4.62936 60.789 6.09002C61.06 6.20459 61.3461 6.26187 61.4214 6.20459C61.5268 6.14731 61.5871 5.31673 61.5871 3.98495C61.5871 1.92283 61.572 1.83691 61.2558 1.63642C60.9095 1.42162 60.4276 1.32138 57.8226 0.920411C57.1149 0.805849 56.377 0.676967 56.1662 0.634006C55.2778 0.433522 50.7453 0.118476 49.1191 0.132796C48.1554 0.147116 46.514 0.233038 45.475 0.33328ZM17.7232 0.93473C17.663 0.977691 17.6178 4.07087 17.6178 7.79414C17.6178 14.9972 17.5425 15.8994 16.8649 17.3458C16.4584 18.2193 15.2387 19.3506 14.2147 19.8088C13.2962 20.2241 11.5796 20.5965 10.5857 20.5965C8.71856 20.5965 4.75832 19.7945 3.05677 19.0785C2.80078 18.9639 2.51468 18.878 2.40927 18.878C2.31893 18.878 1.82201 18.6775 1.3251 18.4484C0.81313 18.205 0.30116 18.0474 0.195754 18.0761C0.0451743 18.1334 0 18.6632 0 20.3816V22.6013L0.51197 22.8018C1.00888 23.0023 1.47568 23.0882 4.4421 23.5464C6.98689 23.9331 7.90543 24.019 10.6912 24.1049C13.6576 24.2052 17.4974 24.019 18.7472 23.7326C20.8854 23.2457 21.8491 22.9593 22.7375 22.5726C25.2673 21.4557 26.7128 19.952 27.6012 17.5606C27.9325 16.6727 27.9325 16.5581 27.9325 8.78224V0.90609L22.873 0.863129C20.1024 0.848809 17.7835 0.877449 17.7232 0.93473ZM65.3967 0.93473C65.2462 0.992011 65.201 3.36918 65.201 12.1475C65.201 23.2457 65.201 23.303 65.5021 23.4605C65.728 23.5751 69.3118 23.6037 77.8195 23.5607C90.9652 23.5035 90.664 23.5178 92.5914 22.6299C93.5702 22.1717 94.9706 20.9115 95.4072 20.0952C96.371 18.3195 96.1451 16.1285 94.8351 14.5533C93.9165 13.4363 92.23 12.5771 89.9713 12.0759C89.5648 11.99 89.2335 11.8468 89.2636 11.7752C89.2787 11.7036 89.6099 11.5747 89.9864 11.4744C93.0582 10.7298 94.8501 8.32399 94.4285 5.48857C94.0671 3.05413 92.1397 1.52186 88.7667 0.977692C87.9686 0.848809 65.713 0.805848 65.3967 0.93473ZM83.0145 4.50048C84.0385 5.00169 84.7763 6.13299 84.7763 7.20701C84.7763 8.38127 83.8277 9.65577 82.7134 9.97082C82.096 10.1427 75.1844 10.2429 75.0188 10.0711C74.8833 9.9565 74.7929 5.05897 74.9134 4.60072L74.9887 4.27135H78.7682C81.9454 4.27135 82.608 4.31431 83.0145 4.50048ZM83.6922 13.8802C85.1377 14.496 85.8304 15.8994 85.4991 17.5176C85.3485 18.2336 85.213 18.4771 84.6408 19.0212C83.6922 19.9234 83.0748 20.0236 78.6628 20.0236C75.3501 20.0236 75.1392 20.0093 74.9887 19.7516C74.823 19.4508 74.7778 14.4674 74.9284 13.8946L75.0188 13.5795H79.0091C82.7285 13.5795 83.0296 13.5938 83.6922 13.8802Z" fill="#284D8A"/>
</svg>
