<svg width="40" height="31" viewBox="0 0 40 31" fill="none" xmlns="http://www.w3.org/2000/svg">
<g opacity="0.5">
<path d="M7.08444 30.2948V28.2799C7.08444 27.5091 6.61494 27.0044 5.80895 27.0044C5.40596 27.0044 4.96775 27.1374 4.66649 27.5756C4.43173 27.2078 4.09525 27.0044 3.59054 27.0044C3.25406 27.0044 2.91758 27.1061 2.65152 27.4739V27.0709H1.94727V30.2948H2.65152V28.5146C2.65152 27.9434 2.95279 27.6734 3.4223 27.6734C3.8918 27.6734 4.12656 27.9747 4.12656 28.5146V30.2948H4.83081V28.5146C4.83081 27.9434 5.16729 27.6734 5.60159 27.6734C6.07109 27.6734 6.30584 27.9747 6.30584 28.5146V30.2948H7.08444ZM17.5309 27.0709H16.3885V26.0967H15.6842V27.0709H15.0465V27.7086H15.6842V29.1876C15.6842 29.9271 15.9855 30.3614 16.7915 30.3614C17.0927 30.3614 17.4292 30.2596 17.664 30.1266L17.4605 29.5202C17.2571 29.6532 17.0223 29.6884 16.8541 29.6884C16.5176 29.6884 16.3846 29.4849 16.3846 29.1524V27.7086H17.527V27.0709H17.5309ZM23.5093 27.0005C23.1063 27.0005 22.8364 27.2039 22.6681 27.47V27.067H21.9639V30.2909H22.6681V28.4755C22.6681 27.9395 22.9029 27.6343 23.3411 27.6343C23.4741 27.6343 23.6423 27.6695 23.7793 27.7008L23.9827 27.0279C23.8419 27.0005 23.6423 27.0005 23.5093 27.0005ZM14.4752 27.337C14.1388 27.1022 13.6693 27.0005 13.1645 27.0005C12.3586 27.0005 11.8225 27.4035 11.8225 28.0412C11.8225 28.5772 12.2255 28.8824 12.9298 28.9802L13.2663 29.0154C13.634 29.0819 13.8375 29.1837 13.8375 29.3519C13.8375 29.5867 13.5675 29.7549 13.098 29.7549C12.6285 29.7549 12.2568 29.5867 12.0221 29.4184L11.6856 29.9544C12.0534 30.2244 12.5581 30.3574 13.0628 30.3574C14.0018 30.3574 14.5418 29.9192 14.5418 29.3167C14.5418 28.7455 14.1036 28.4442 13.4345 28.3425L13.098 28.3073C12.7968 28.2721 12.562 28.2055 12.562 28.006C12.562 27.7712 12.7968 27.6382 13.1685 27.6382C13.5714 27.6382 13.9744 27.8065 14.1779 27.9082L14.4752 27.337ZM33.2124 27.0005C32.8095 27.0005 32.5395 27.2039 32.3712 27.47V27.067H31.667V30.2909H32.3712V28.4755C32.3712 27.9395 32.606 27.6343 33.0442 27.6343C33.1772 27.6343 33.3455 27.6695 33.4824 27.7008L33.6859 27.0357C33.5489 27.0005 33.3494 27.0005 33.2124 27.0005ZM24.2136 28.6829C24.2136 29.6571 24.8865 30.3614 25.9273 30.3614C26.3968 30.3614 26.7333 30.2596 27.0697 29.9936L26.7333 29.4223C26.4633 29.6258 26.1972 29.7236 25.8921 29.7236C25.3208 29.7236 24.9178 29.3206 24.9178 28.6829C24.9178 28.0764 25.3208 27.6734 25.8921 27.6421C26.1933 27.6421 26.4633 27.7439 26.7333 27.9434L27.0697 27.3722C26.7333 27.1022 26.3968 27.0044 25.9273 27.0044C24.8865 27.0005 24.2136 27.7086 24.2136 28.6829ZM30.728 28.6829V27.0709H30.0237V27.4739C29.789 27.1726 29.4525 27.0044 29.0143 27.0044C28.1066 27.0044 27.4023 27.7086 27.4023 28.6829C27.4023 29.6571 28.1066 30.3614 29.0143 30.3614C29.4838 30.3614 29.8203 30.1931 30.0237 29.8918V30.2948H30.728V28.6829ZM28.1418 28.6829C28.1418 28.1116 28.5096 27.6421 29.116 27.6421C29.6872 27.6421 30.0902 28.0803 30.0902 28.6829C30.0902 29.2541 29.6872 29.7236 29.116 29.7236C28.5135 29.6884 28.1418 29.2502 28.1418 28.6829ZM19.7141 27.0005C18.7751 27.0005 18.1022 27.6734 18.1022 28.679C18.1022 29.6884 18.7751 30.3574 19.7494 30.3574C20.2189 30.3574 20.6884 30.2244 21.0601 29.9192L20.7236 29.4145C20.4536 29.618 20.1171 29.751 19.7846 29.751C19.3464 29.751 18.9121 29.5475 18.8104 28.9802H21.1931C21.1931 28.8785 21.1931 28.812 21.1931 28.7103C21.2244 27.6734 20.6179 27.0005 19.7141 27.0005ZM19.7141 27.6069C20.1524 27.6069 20.4536 27.8769 20.5201 28.3777H18.8417C18.9082 27.9434 19.2094 27.6069 19.7141 27.6069ZM37.2111 28.6829V25.7954H36.5068V27.4739C36.2721 27.1726 35.9356 27.0044 35.4974 27.0044C34.5897 27.0044 33.8854 27.7086 33.8854 28.6829C33.8854 29.6571 34.5897 30.3614 35.4974 30.3614C35.9669 30.3614 36.3034 30.1931 36.5068 29.8918V30.2948H37.2111V28.6829ZM34.6249 28.6829C34.6249 28.1116 34.9927 27.6421 35.5991 27.6421C36.1703 27.6421 36.5733 28.0803 36.5733 28.6829C36.5733 29.2541 36.1703 29.7236 35.5991 29.7236C34.9927 29.6884 34.6249 29.2502 34.6249 28.6829ZM11.0479 28.6829V27.0709H10.3436V27.4739C10.1088 27.1726 9.77236 27.0044 9.33416 27.0044C8.42645 27.0044 7.72219 27.7086 7.72219 28.6829C7.72219 29.6571 8.42645 30.3614 9.33416 30.3614C9.80366 30.3614 10.1401 30.1931 10.3436 29.8918V30.2948H11.0479V28.6829ZM8.43036 28.6829C8.43036 28.1116 8.79814 27.6421 9.40458 27.6421C9.97581 27.6421 10.3788 28.0803 10.3788 28.6829C10.3788 29.2541 9.97581 29.7236 9.40458 29.7236C8.79814 29.6884 8.43036 29.2502 8.43036 28.6829Z" fill="black"/>
<path d="M24.8207 2.58643H14.2412V21.5936H24.8207V2.58643Z" fill="#FF5A00"/>
<path d="M14.9459 12.0898C14.9459 8.22809 16.7614 4.8007 19.5471 2.58619C17.4969 0.974225 14.9107 0 12.0898 0C5.40714 0 0 5.40714 0 12.0898C0 18.7724 5.40714 24.1796 12.0898 24.1796C14.9107 24.1796 17.4969 23.2053 19.5471 21.5934C16.7574 19.4102 14.9459 15.9515 14.9459 12.0898Z" fill="#EB001B"/>
<path d="M39.094 12.0898C39.094 18.7724 33.6868 24.1796 27.0042 24.1796C24.1832 24.1796 21.597 23.2053 19.5469 21.5934C22.3678 19.3749 24.148 15.9515 24.148 12.0898C24.148 8.22809 22.3326 4.8007 19.5469 2.58619C21.5931 0.974225 24.1793 0 27.0003 0C33.6868 0 39.094 5.44236 39.094 12.0898Z" fill="#F79E1B"/>
</g>
</svg>
