<svg width="47" height="30" viewBox="0 0 47 30" fill="none" xmlns="http://www.w3.org/2000/svg">
<g opacity="0.5">
<path d="M44.6906 0.00887167L33.1545 0.00585938H33.1513C33.1423 0.00585938 33.1337 0.0074448 33.125 0.0074448C31.5402 0.0559587 29.5662 1.32715 29.2068 2.8945L23.7512 27.0346C23.3916 28.6167 24.3695 29.9039 25.9429 29.9275H38.0623C39.6114 29.8509 41.1172 28.5943 41.4705 27.0447L46.9264 2.90448C47.2917 1.30654 46.2903 0.00887167 44.6906 0.00887167Z" fill="#01798A"/>
<path d="M23.7522 27.0345L29.2078 2.89442C29.5672 1.32707 31.5412 0.0558827 33.126 0.00736887L28.5391 0.00451511L20.2751 0.00292969C18.6858 0.0354308 16.6863 1.3155 16.3269 2.89458L10.8697 27.0345C10.5089 28.6166 11.4883 29.9038 13.0606 29.9274H25.9439C24.3705 29.9038 23.3926 28.6166 23.7522 27.0345Z" fill="#024381"/>
<path d="M10.8688 27.0344L16.3259 2.89434C16.6853 1.31527 18.6849 0.0351964 20.2741 0.00269522L9.68746 0C8.08935 0 6.04036 1.29481 5.67507 2.89434L0.217898 27.0344C0.184762 27.1817 0.166213 27.3262 0.155273 27.4673V27.915C0.262131 29.0682 1.14283 29.908 2.40879 29.9272H13.0596C11.4874 29.9037 10.5079 28.6165 10.8688 27.0344Z" fill="#DD0228"/>
<path d="M20.497 17.5929H20.6974C20.8814 17.5929 21.0053 17.5309 21.0635 17.4087L21.5841 16.6296H22.9782L22.6876 17.142H24.3591L24.1469 17.9273H22.1579C21.9288 18.2719 21.6467 18.4338 21.3078 18.4146H20.2717L20.497 17.5929ZM20.268 18.7181H23.9305L23.697 19.571H22.224L21.9993 20.3942H23.4325L23.1992 21.2471H21.766L21.433 22.4636C21.3506 22.667 21.459 22.7584 21.7564 22.7378H22.9244L22.708 23.5305H20.4654C20.0404 23.5305 19.8945 23.2873 20.0279 22.7997L20.4535 21.2473H19.5375L19.7702 20.3943H20.6864L20.9111 19.5712H20.0353L20.268 18.7181ZM26.1135 16.6236L26.0559 17.123C26.0559 17.123 26.7467 16.6044 27.3741 16.6044H29.6924L28.8059 19.8139C28.7323 20.1808 28.417 20.3633 27.8602 20.3633H25.2323L24.6169 22.6169C24.5812 22.7378 24.6314 22.7996 24.764 22.7996H25.2811L25.0911 23.4992H23.7766C23.2721 23.4992 23.0622 23.3475 23.1454 23.0426L24.8848 16.6236H26.1135ZM28.0769 17.5309H26.0074L25.7598 18.397C25.7598 18.397 26.1045 18.1483 26.6804 18.1394C27.2548 18.1304 27.9104 18.1394 27.9104 18.1394L28.0769 17.5309ZM27.327 19.54C27.48 19.5607 27.5657 19.5003 27.5759 19.3573L27.7026 18.9009H25.6301L25.4563 19.54H27.327ZM25.9293 20.577H27.1239L27.1015 21.094H27.4196C27.5803 21.094 27.6601 21.0425 27.6601 20.9408L27.7542 20.6065H28.7472L28.6147 21.094C28.5024 21.5005 28.2051 21.7126 27.7219 21.7334H27.0855L27.0825 22.6169C27.0709 22.7585 27.1987 22.8307 27.4624 22.8307H28.0604L27.8674 23.5305H26.4328C26.0306 23.5495 25.8333 23.358 25.8376 22.9515L25.9293 20.577ZM11.4531 12.3477C11.2911 13.1417 10.9155 13.7514 10.3328 14.1844C9.75544 14.6101 9.01092 14.8237 8.09915 14.8237C7.24112 14.8237 6.61218 14.6057 6.21075 14.1682C5.93235 13.8575 5.79395 13.4627 5.79395 12.9855C5.79395 12.7881 5.81757 12.576 5.86465 12.3479L6.83604 7.66405H8.30303L7.34512 12.2946C7.31772 12.4109 7.30441 12.5301 7.30549 12.6496C7.3039 12.8867 7.36288 13.0811 7.4821 13.2328C7.65586 13.4583 7.93791 13.5701 8.33062 13.5701C8.78199 13.5701 9.15393 13.4597 9.44263 13.2371C9.73134 13.0161 9.91984 12.7025 10.0045 12.2944L10.9656 7.66357H12.4253L11.4531 12.3477ZM17.6144 10.505H18.7633L17.8633 14.6852H16.7165L17.6144 10.505ZM17.976 8.98201H19.1353L18.9187 9.99668H17.7596L17.976 8.98201ZM19.7804 14.3671C19.4798 14.0798 19.3281 13.6925 19.3266 13.2005C19.3266 13.1165 19.3317 13.0209 19.343 12.9162C19.3541 12.8102 19.368 12.7071 19.3878 12.6114C19.524 11.9323 19.8143 11.3933 20.2612 10.9955C20.7075 10.5963 21.2459 10.396 21.8765 10.396C22.3927 10.396 22.8022 10.5405 23.102 10.829C23.4016 11.1193 23.5518 11.5109 23.5518 12.0089C23.5518 12.0942 23.5453 12.193 23.5342 12.299C23.5213 12.4036 23.5053 12.5077 23.4863 12.6114C23.3531 13.2801 23.0638 13.8133 22.6167 14.2036C22.1696 14.5968 21.6326 14.7926 21.0067 14.7926C20.4883 14.7927 20.0802 14.6513 19.7804 14.3671ZM21.97 13.5393C22.1726 13.3199 22.3175 12.9869 22.406 12.5437C22.4193 12.4744 22.431 12.4022 22.4383 12.3301C22.4456 12.2594 22.4486 12.1931 22.4486 12.1327C22.4486 11.8749 22.383 11.6747 22.2512 11.5333C22.1203 11.3904 21.934 11.3197 21.6932 11.3197C21.375 11.3197 21.1156 11.4315 20.9125 11.6555C20.7077 11.8795 20.5625 12.2182 20.4711 12.6689C20.4586 12.7382 20.4483 12.8075 20.4388 12.8752C20.4315 12.9445 20.4293 13.0091 20.4307 13.0681C20.4307 13.3245 20.4963 13.5219 20.6281 13.6617C20.7592 13.8017 20.9447 13.8708 21.1885 13.8708C21.5083 13.8707 21.7674 13.7602 21.97 13.5393Z" fill="white"/>
<path d="M33.1513 0.00582141L28.5381 0.00439453L33.125 0.00740684C33.1336 0.00740684 33.1423 0.00582141 33.1513 0.00582141Z" fill="#E02F41"/>
<path d="M28.5384 0.00443918L20.3378 0C20.3172 0 20.2958 0.00142688 20.2744 0.00285376L28.5384 0.00443918Z" fill="#2E4F7D"/>
<path d="M31.0068 17.6282L31.2838 16.6531H32.6847L32.6242 17.0111C32.6242 17.0111 33.3399 16.6531 33.8555 16.6531H35.5876L35.3123 17.6282H35.0398L33.7333 22.2268H34.0058L33.7466 23.1401H33.474L33.3607 23.5362H32.004L32.1172 23.1401H29.441L29.7018 22.2268H29.9699L31.2778 17.6282H31.0068ZM32.5182 17.6282L32.1618 18.8727C32.1618 18.8727 32.7719 18.6386 33.2976 18.5723C33.4136 18.1379 33.5654 17.6282 33.5654 17.6282H32.5182ZM31.9967 19.4562L31.6389 20.7599C31.6389 20.7599 32.3149 20.4269 32.7788 20.399C32.9128 19.8952 33.0469 19.4563 33.0469 19.4563L31.9967 19.4562ZM32.2588 22.2268L32.5267 21.2811H31.4813L31.2116 22.2268H32.2588ZM35.6465 16.5927H36.9635L37.0195 17.0787C37.0106 17.2023 37.0844 17.2615 37.2405 17.2615H37.4733L37.2378 18.0846H36.2699C35.9005 18.1036 35.7104 17.9624 35.6927 17.6575L35.6465 16.5927ZM35.2606 18.3589H39.5262L39.2759 19.2428H37.9178L37.6849 20.0645H39.0419L38.7898 20.9468H37.2787L36.9369 21.4639H37.6767L37.8474 22.4994C37.8677 22.6024 37.959 22.6525 38.1154 22.6525H38.3449L38.1036 23.5052H37.2905C36.8691 23.5259 36.6514 23.3845 36.6335 23.0796L36.4375 22.1339L35.7645 23.1401C35.6053 23.4243 35.3607 23.5569 35.0309 23.5362H33.7892L34.0307 22.6833H34.4182C34.5773 22.6833 34.7097 22.6127 34.8289 22.4697L35.8824 20.9468H34.5244L34.7761 20.0645H36.2492L36.4833 19.2428H35.009L35.2606 18.3589ZM12.8049 10.5036H13.8411L13.7225 11.1075L13.8713 10.9352C14.2072 10.5757 14.6151 10.3975 15.0968 10.3975C15.5328 10.3975 15.8472 10.5242 16.0447 10.779C16.2391 11.0338 16.2922 11.3859 16.2001 11.8381L15.6292 14.6867H14.5642L15.0797 12.1047C15.1328 11.8381 15.118 11.6393 15.0362 11.511C14.9554 11.3829 14.8006 11.3196 14.5774 11.3196C14.3034 11.3196 14.0729 11.4049 13.885 11.5744C13.6965 11.7453 13.5721 11.9825 13.5109 12.2844L13.0359 14.6867H11.9688L12.8049 10.5036ZM24.6878 10.5036H25.725L25.6072 11.1075L25.7541 10.9352C26.0904 10.5757 26.4998 10.3975 26.98 10.3975C27.416 10.3975 27.7308 10.5242 27.927 10.779C28.1202 11.0338 28.1759 11.3859 28.0817 11.8381L27.513 14.6867H26.4467L26.9624 12.1047C27.0153 11.8381 27.0004 11.6393 26.9194 11.511C26.8354 11.3829 26.6837 11.3196 26.4614 11.3196C26.1873 11.3196 25.9577 11.4049 25.7676 11.5744C25.5791 11.7453 25.4539 11.9825 25.395 12.2844L24.9177 14.6867H23.852L24.6878 10.5036ZM29.8139 7.91113H32.8246C33.4033 7.91113 33.8512 8.04225 34.1589 8.29988C34.4652 8.56084 34.6186 8.93484 34.6186 9.42236V9.4371C34.6186 9.52985 34.6125 9.63449 34.6036 9.74784C34.5883 9.86295 34.5687 9.97744 34.5448 10.0911C34.4121 10.7362 34.1044 11.2548 33.6288 11.648C33.1512 12.0397 32.5859 12.2371 31.9349 12.2371H30.3203L29.8211 14.6866H28.4232L29.8139 7.91113ZM30.5664 11.059H31.9053C32.2542 11.059 32.5312 10.9778 32.7333 10.8174C32.9337 10.6553 33.0663 10.4079 33.1395 10.0721C33.1512 10.0101 33.1587 9.95411 33.1676 9.90258C33.172 9.85407 33.1779 9.80524 33.1779 9.75831C33.1779 9.51812 33.0926 9.34435 32.9215 9.23528C32.7508 9.12461 32.4827 9.07182 32.1115 9.07182H30.9745L30.5664 11.059ZM40.8756 15.4955C40.4336 16.4351 40.0125 16.9829 39.7651 17.2377C39.5175 17.4898 39.027 18.0759 37.8457 18.0317L37.9476 17.3146C38.9417 17.0081 39.4791 15.6279 39.7858 15.0167L39.4203 10.5153L40.1892 10.505H40.8343L40.9038 13.3287L42.1128 10.505H43.3371L40.8756 15.4955ZM37.4526 10.8453L36.9664 11.1796C36.4583 10.782 35.9944 10.536 35.0989 10.9513C33.8793 11.5169 32.86 15.8549 36.2184 14.4261L36.4098 14.653L37.731 14.6869L38.5987 10.7452L37.4526 10.8453ZM36.7012 13.0002C36.489 13.6263 36.015 14.0401 35.6437 13.9223C35.2725 13.8073 35.1398 13.2034 35.3551 12.5759C35.5673 11.9484 36.0445 11.536 36.4126 11.6538C36.7838 11.7688 36.9177 12.3727 36.7012 13.0002Z" fill="white"/>
</g>
</svg>
