<svg width="74" height="25" viewBox="0 0 74 25" fill="none" xmlns="http://www.w3.org/2000/svg">
<path d="M48.1989 0.132324C42.9446 0.132324 38.2491 2.85839 38.2491 7.89501C38.2491 13.671 46.5767 14.0699 46.5767 16.9716C46.5767 18.1934 45.1779 19.2872 42.7888 19.2872C39.3982 19.2872 36.8641 17.7589 36.8641 17.7589L35.7798 22.8414C35.7798 22.8414 38.699 24.1323 42.5749 24.1323C48.3195 24.1323 52.8398 21.2724 52.8398 16.1497C52.8398 10.0463 44.4776 9.65917 44.4776 6.96595C44.4776 6.00872 45.6258 4.96007 48.0081 4.96007C50.6959 4.96007 52.889 6.07152 52.889 6.07152L53.9501 1.16274C53.9501 1.16274 51.564 0.132324 48.1989 0.132324ZM0.127259 0.502834L0 1.24378C0 1.24378 2.21052 1.64869 4.20141 2.45652C6.76481 3.38275 6.94748 3.92202 7.37919 5.59684L12.0836 23.7502H18.3901L28.1057 0.502834H21.8137L15.5709 16.3088L13.0235 2.91089C12.7899 1.37754 11.6064 0.502834 10.1579 0.502834H0.127259ZM30.6358 0.502834L25.6999 23.7502H31.6999L36.6184 0.50276H30.6358V0.502834ZM64.0994 0.502834C62.6526 0.502834 61.8861 1.27818 61.3236 2.63306L52.5333 23.7502H58.8253L60.0426 20.2306H67.708L68.4483 23.7502H74L69.1567 0.502834H64.0994ZM64.9177 6.78355L66.7827 15.5071H61.7861L64.9177 6.78355Z" fill="#1434CB"/>
</svg>
