<svg width="67" height="67" viewBox="0 0 67 67" fill="none" xmlns="http://www.w3.org/2000/svg">
<path d="M42.307 0H24.693C18.1444 0 11.8635 2.60157 7.23264 7.23264C2.60158 11.8631 0 18.1441 0 24.693V42.307C0 48.8556 2.60158 55.1365 7.23264 59.7674C11.8631 64.3984 18.1441 67 24.693 67H42.307C48.8556 67 55.1365 64.3984 59.7674 59.7674C64.3984 55.1369 67 48.8559 67 42.307V24.693C67 18.1444 64.3984 11.8635 59.7674 7.23264C55.1369 2.60157 48.8559 0 42.307 0ZM51.402 25.6254L33.4995 44.5845C32.2037 45.9514 30.4032 46.7248 28.5199 46.7248H28.2866C26.3465 46.6771 24.5172 45.8099 23.252 44.3376L15.5147 35.3388H15.5153C14.9427 34.8097 14.6224 34.062 14.634 33.2824C14.6463 32.5034 14.9886 31.7661 15.5766 31.254C16.1651 30.7426 16.9428 30.505 17.7163 30.6012C18.4897 30.6973 19.1854 31.118 19.6307 31.758L27.368 40.7567L27.3674 40.7574C27.6221 41.0544 27.9914 41.2295 28.3828 41.2375C28.7704 41.2473 29.144 41.093 29.4116 40.8119L47.3815 21.8527C48.0656 21.1889 49.0448 20.928 49.9683 21.1625C50.8925 21.3977 51.628 22.0952 51.9116 23.0053C52.1951 23.9153 51.9863 24.9075 51.3598 25.6252L51.402 25.6254Z" fill="#3330E4"/>
</svg>
