<svg width="38" height="38" viewBox="0 0 38 38" fill="none" xmlns="http://www.w3.org/2000/svg">
<path d="M22.4814 19.0003L37.2778 4.20309C38.2407 3.24059 38.2407 1.68437 37.2778 0.721872C36.3153 -0.240624 34.7591 -0.240624 33.7967 0.721872L18.9998 15.5191L4.20334 0.721872C3.24041 -0.240624 1.68467 -0.240624 0.722195 0.721872C-0.240732 1.68437 -0.240732 3.24059 0.722195 4.20309L15.5186 19.0003L0.722195 33.7975C-0.240732 34.76 -0.240732 36.3162 0.722195 37.2787C1.20186 37.7588 1.83254 38 2.46277 38C3.093 38 3.72323 37.7588 4.20334 37.2787L18.9998 22.4815L33.7967 37.2787C34.2768 37.7588 34.907 38 35.5372 38C36.1675 38 36.7977 37.7588 37.2778 37.2787C38.2407 36.3162 38.2407 34.76 37.2778 33.7975L22.4814 19.0003Z" fill="white"/>
</svg>
