<svg width="48" height="51" viewBox="0 0 48 51" fill="none" xmlns="http://www.w3.org/2000/svg">
<path d="M23.7602 24.116C26.2331 24.116 28.245 22.1036 28.245 19.6311C28.245 17.1587 26.233 15.1471 23.7602 15.1471C21.2874 15.1471 19.2754 17.1587 19.2754 19.6311C19.2754 22.1036 21.2874 24.116 23.7602 24.116Z" fill="#FF7A09"/>
<path d="M19.9272 35.2653C19.9469 35.2669 19.9663 35.268 19.9861 35.268H27.5344C27.5541 35.268 27.5735 35.2669 27.5933 35.2653C29.0803 35.1123 30.2017 33.8683 30.2017 32.3714V32.1548C30.2017 28.6027 27.3122 25.7133 23.7602 25.7133C20.2082 25.7133 17.3184 28.6028 17.3184 32.1548V32.3714C17.3188 33.8683 18.4402 35.1123 19.9272 35.2653Z" fill="#FF7A09"/>
<path d="M4.89699 30.6742L1.094 32.8759C0.588044 33.1665 0.227154 33.6364 0.0761147 34.2001C-0.0752783 34.7638 0.00140734 35.3528 0.291937 35.8584L3.06125 40.6432C3.34743 41.148 3.81663 41.5081 4.38504 41.6603C4.97994 41.822 5.53883 41.7334 6.03811 41.4449L9.91932 39.202L10.2601 38.8455L10.6798 39.2443C12.8563 41.3208 15.5236 42.8607 18.3934 43.698L18.8112 43.8197V48.8212C18.8112 50.0225 19.7915 51 20.9963 51H26.5255C27.7303 51 28.7107 50.0225 28.7107 48.8212V43.8367L29.1285 43.698C31.9982 42.8612 34.6656 41.3208 36.842 39.2443L37.2614 38.8447L37.6026 39.2016L41.485 41.4453C41.9826 41.7326 42.5439 41.8208 43.1364 41.6599C43.7048 41.5073 44.174 41.1476 44.4586 40.6472L47.2307 35.856C47.8304 34.8128 47.4734 33.4748 46.4347 32.876L42.3542 30.492L42.1475 30.2647L42.2075 29.9548C42.5621 28.4784 42.742 26.9803 42.742 25.5C42.742 24.0141 42.5617 22.5165 42.2075 21.046L42.1293 20.7215L42.5396 20.3309L42.6206 20.3293L46.4275 18.1257C46.9335 17.8351 47.2944 17.3652 47.4454 16.8015C47.5968 16.2378 47.5201 15.6492 47.2296 15.1433L44.4603 10.3576C44.1741 9.85282 43.7049 9.49272 43.1365 9.34052C42.5748 9.19031 41.9886 9.26739 41.483 9.55594L37.5867 11.8062L37.2405 12.1355L36.8405 11.7553C34.6601 9.67607 31.9928 8.13643 29.1269 7.30241L28.7091 7.18067V2.17876C28.7091 0.977512 27.7288 0 26.524 0H20.9947C19.79 0 18.8096 0.977532 18.8096 2.17876V7.16326L18.3918 7.30201C15.5269 8.13605 12.8594 9.67566 10.6783 11.7548L10.2786 12.1355L9.93276 11.8062L6.03647 9.55472C5.53327 9.26616 4.94552 9.18987 4.38462 9.34008C3.81699 9.49266 3.34781 9.85236 3.06315 10.3528L0.291005 15.1447C-0.308637 16.1879 0.0483063 17.5259 1.0871 18.1247L5.16756 20.5087L5.37429 20.7364L5.31421 21.0463C4.95964 22.5167 4.7798 24.0145 4.7798 25.5004C4.7798 26.9807 4.96004 28.4788 5.31421 29.9551L5.33002 30.0907V30.6706L4.89699 30.6742ZM23.7601 11.4285C31.5191 11.4285 37.8319 17.7408 37.8319 25.5003C37.8319 33.2598 31.5192 39.572 23.7601 39.572C16.0011 39.572 9.68842 33.2598 9.68842 25.5003C9.68842 17.7408 16.0011 11.4285 23.7601 11.4285Z" fill="#3330E4"/>
</svg>
