<svg width="32" height="32" viewBox="0 0 32 32" fill="none" xmlns="http://www.w3.org/2000/svg">
<path d="M25.9377 25.7011C25.9377 27.3854 24.5904 28.7327 22.9062 28.7327H6.26551C4.61486 28.7327 3.23393 27.3854 3.23393 25.7011V9.09412C3.23393 7.44347 4.58123 6.06254 6.26551 6.06254H15.8659L19.1334 2.82861H6.26551C2.82952 2.82861 0 5.62451 0 9.09412V25.7011C0 29.1707 2.82952 32.0003 6.26551 32.0003H22.8725C26.3085 32.0003 29.138 29.1708 29.138 25.7011V12.8669L25.9041 16.1008L25.9043 25.7012L25.9377 25.7011Z" fill="#FF7A09"/>
<path d="M31.2934 2.69429L29.306 0.706908C28.3628 -0.236287 26.8132 -0.236287 25.87 0.706908L14.0801 12.4968L19.5371 17.9202L31.2933 6.16396C32.2368 5.18696 32.2368 3.67117 31.2933 2.69435L31.2934 2.69429Z" fill="#FF7A09"/>
<path d="M10.2731 23.074L14.7197 21.5918C15.6293 21.2887 16.4376 20.7833 17.1451 20.177L11.8225 14.8208C11.2163 15.5619 10.7109 16.3366 10.4077 17.2462L8.9255 21.6928C8.65622 22.5349 9.43092 23.3432 10.273 23.0739L10.2731 23.074Z" fill="#FF7A09"/>
</svg>
