<svg width="59" height="50" viewBox="0 0 59 50" fill="none" xmlns="http://www.w3.org/2000/svg">
<path d="M10.9987 28.0039C10.7977 27.9846 10.5941 27.9722 10.3876 27.9722H6.11056C2.7355 27.9722 0 30.7072 0 34.0827V41.721C0 45.0951 2.73503 47.8315 6.11056 47.8315H10.3876C10.5941 47.8315 10.7982 47.8205 10.9987 47.7998V28.0039Z" fill="#3330E4"/>
<path d="M11.9146 28.5842C11.9146 27.7401 12.5987 27.0565 13.4422 27.0565H15.581C16.4247 27.0565 17.1087 27.7402 17.1087 28.5842V47.5251C17.1087 48.3687 16.4246 49.0528 15.581 49.0528H13.4422C12.5981 49.0528 11.9146 48.3687 11.9146 47.5251V28.5842Z" fill="#3330E4"/>
<path d="M47.355 28.0039C47.5559 27.9846 47.7591 27.9722 47.9655 27.9722H52.2436C55.6181 27.9722 58.3541 30.7072 58.3541 34.0827V41.721C58.3541 45.0951 55.6191 47.8315 52.2436 47.8315H47.9655C47.76 47.8315 47.5563 47.8205 47.355 47.7998V28.0039Z" fill="#3330E4"/>
<path d="M46.4394 28.5842C46.4394 27.7401 45.7553 27.0565 44.9108 27.0565H42.772C41.9298 27.0565 41.2456 27.7402 41.2456 28.5842V47.5251C41.2456 48.3687 41.9297 49.0528 42.772 49.0528H44.9108C45.7549 49.0528 46.4394 48.3687 46.4394 47.5251V28.5842Z" fill="#3330E4"/>
<path d="M47.6997 12.601C47.9609 11.8227 47.8482 10.934 47.3181 10.2283C42.9877 4.46162 36.5595 1.10127 29.6213 0.954622C29.5753 0.951863 29.5289 0.947266 29.4825 0.947266C29.4273 0.947266 29.3712 0.949105 29.3151 0.950024C29.259 0.949564 29.2039 0.947266 29.1478 0.947266C29.1009 0.947266 29.0549 0.951863 29.008 0.954622C22.0717 1.10174 15.6424 4.46162 11.3112 10.2283C10.7043 11.0356 10.645 12.0815 11.0661 12.9293C8.85698 16.565 7.56738 20.888 7.56738 25.5275C7.56738 26.2406 8.14621 26.818 8.85839 26.818C9.57239 26.818 10.1503 26.2406 10.1503 25.5275C10.1503 21.4146 11.28 17.5816 13.2182 14.3555C13.2702 14.3587 13.3217 14.362 13.3732 14.362C14.1575 14.362 14.9331 14.0052 15.4401 13.3303C18.8502 8.79026 23.8991 6.17105 29.3142 6.11773C34.7282 6.17107 39.7771 8.79121 43.1859 13.3293C43.6939 14.0047 44.4685 14.3615 45.2529 14.3615C45.4096 14.3615 45.5664 14.3458 45.7223 14.3169C47.6744 17.5504 48.8127 21.3984 48.8127 25.5275C48.8127 26.2405 49.3902 26.818 50.1037 26.818C50.8177 26.818 51.3957 26.2406 51.3957 25.5275C51.3957 20.7479 50.0321 16.3016 47.6989 12.6009L47.6997 12.601Z" fill="#3330E4"/>
</svg>
