<svg width="20" height="20" viewBox="0 0 20 20" fill="none" xmlns="http://www.w3.org/2000/svg">
<mask id="mask0_70_53" style="mask-type:luminance" maskUnits="userSpaceOnUse" x="0" y="0" width="20" height="20">
<path d="M9.76022 19.0209C8.57961 19.009 7.64944 19.009 6.70734 18.9971C6.19455 18.9851 5.68176 18.9613 5.16897 18.9255C4.46537 18.8897 3.77371 18.7228 3.11781 18.4485C1.8895 17.9357 0.935476 16.9459 0.482313 15.6937C0.303433 15.2048 0.172255 14.7039 0.124553 14.1911C0.0768521 13.8334 0.0530017 13.4756 0.0530017 13.1179C0.0410763 12.4262 0.0172255 11.7226 0.00530015 11.0309C-0.00662519 10.0054 0.00530015 8.9917 0.00530015 7.96612C0.00530015 7.52489 0.00529997 7.07172 0.0172253 6.63049C0.0291506 6.18925 0.041076 5.77186 0.076852 5.34255C0.112628 4.5674 0.279583 3.80418 0.577717 3.08866C1.07858 1.91998 2.02068 1.00173 3.20129 0.524715C3.78563 0.286208 4.40575 0.131179 5.04972 0.0834779C5.88449 0.0119259 6.71926 0 7.55404 0C9.05663 0 10.5592 0 12.0618 0C12.6581 0 13.2543 0.0357767 13.8506 0.0715527C14.5542 0.107329 15.2578 0.274283 15.9018 0.548566C17.1301 1.06136 18.0841 2.06308 18.5373 3.31524C18.7281 3.82803 18.8593 4.36467 18.907 4.91324C18.9547 5.30677 18.9666 5.71223 18.9785 6.1177C19.0143 6.91669 19.0143 7.71569 19.0143 8.51469C19.0143 9.59989 19.0143 10.6851 19.0143 11.7584C19.0143 12.3546 18.9904 12.9509 18.9547 13.5472C18.9308 14.1673 18.8235 14.7755 18.6446 15.3598C18.4657 15.9561 18.1676 16.5285 17.786 17.0174C17.2136 17.733 16.4623 18.2696 15.5917 18.5677C15.0789 18.7585 14.5304 18.8659 13.9818 18.9136C13.5286 18.9494 13.0635 18.9732 12.6104 18.9851C11.5848 19.009 10.5473 19.009 9.76022 19.0209ZM1.71062 9.50449C1.71062 9.80262 1.71062 10.1008 1.71062 10.3989C1.71062 11.2575 1.71062 12.1161 1.7464 12.9748C1.75832 13.3325 1.77025 13.6903 1.81795 14.0361C1.86565 14.4535 1.97298 14.8709 2.13994 15.2525C2.42614 15.9203 2.93893 16.457 3.59483 16.7909C4.08376 17.0294 4.60848 17.1725 5.14512 17.2083C5.55058 17.244 5.95604 17.2679 6.3615 17.2798C6.91007 17.2917 7.44671 17.3037 7.99527 17.3037C9.35476 17.3037 10.7262 17.3037 12.0857 17.2917C12.67 17.2917 13.2424 17.2679 13.8268 17.2083C14.268 17.1725 14.6973 17.0771 15.1028 16.922C15.8421 16.6478 16.4503 16.0873 16.7842 15.3837C17.0228 14.8947 17.1539 14.3581 17.1897 13.8095C17.2255 13.3802 17.2493 12.9509 17.2613 12.5216C17.2732 11.973 17.2851 11.4364 17.2851 10.8759C17.2851 9.86225 17.2851 8.8486 17.2851 7.83494C17.2851 7.33408 17.2732 6.83322 17.2613 6.33235C17.2493 5.91497 17.2374 5.48565 17.1897 5.06827C17.142 4.63895 17.0347 4.22157 16.8796 3.82803C16.5934 3.11251 16.0568 2.5401 15.3651 2.20619C14.8881 1.97961 14.3753 1.84843 13.8506 1.81265C13.4094 1.77688 12.9562 1.75302 12.515 1.7411C11.9426 1.72917 11.3582 1.71725 10.7858 1.71725C9.0924 1.71725 7.38708 1.6934 5.69368 1.76495C5.28822 1.77687 4.89469 1.82458 4.50115 1.90805C4.09569 1.99153 3.71408 2.14656 3.36824 2.36122C2.74813 2.75475 2.28304 3.33909 2.04453 4.04269C1.8895 4.50778 1.80603 4.99671 1.78217 5.48565C1.75832 6.01037 1.73447 6.53508 1.72255 7.0598C1.71062 7.87072 1.72255 9.50449 1.71062 9.50449Z" fill="white"/>
</mask>
<g mask="url(#mask0_70_53)">
<path d="M6.00411 -0.834808H13.0162C16.7965 -0.834808 19.8494 2.23 19.8494 5.99841V13.0105C19.8494 16.7908 16.7846 19.8437 13.0162 19.8437H6.00411C2.22378 19.8556 -0.829102 16.7908 -0.829102 13.0105V5.99841C-0.829102 2.23 2.22378 -0.834808 6.00411 -0.834808Z" fill="url(#paint0_radial_70_53)"/>
</g>
<mask id="mask1_70_53" style="mask-type:luminance" maskUnits="userSpaceOnUse" x="4" y="4" width="11" height="11">
<path d="M9.49807 14.3939C6.80294 14.3939 4.62061 12.1996 4.62061 9.50447C4.62061 6.80935 6.81487 4.62701 9.50999 4.62701C12.2051 4.62701 14.3875 6.82127 14.3875 9.5164C14.3875 12.2115 12.2051 14.3939 9.49807 14.3939C9.50999 14.3939 9.50999 14.3939 9.49807 14.3939ZM6.33785 9.49255C6.32593 11.2456 7.74504 12.6647 9.49807 12.6766C11.2511 12.6885 12.6702 11.2694 12.6821 9.5164C12.6941 7.76338 11.2749 6.34426 9.53384 6.33234C7.78082 6.33234 6.34978 7.73953 6.33785 9.49255Z" fill="white"/>
</mask>
<g mask="url(#mask1_70_53)">
<path d="M6.00411 -0.822868H13.0162C16.7965 -0.822868 19.8494 2.24194 19.8494 6.01035V13.0224C19.8494 16.8028 16.7846 19.8557 13.0162 19.8557H6.00411C2.23571 19.8557 -0.829102 16.7908 -0.829102 13.0224V6.01035C-0.829102 2.23002 2.23571 -0.822868 6.00411 -0.822868Z" fill="url(#paint1_radial_70_53)"/>
</g>
<mask id="mask2_70_53" style="mask-type:luminance" maskUnits="userSpaceOnUse" x="13" y="3" width="3" height="3">
<path d="M14.5897 3.29142C15.2217 3.29142 15.7226 3.81614 15.7226 4.43625C15.7226 5.0683 15.1978 5.56916 14.5777 5.56916C13.9457 5.56916 13.4448 5.04445 13.4448 4.42433V4.4124C13.4567 3.78036 13.9695 3.2795 14.5897 3.29142Z" fill="white"/>
</mask>
<g mask="url(#mask2_70_53)">
<path d="M6.00314 -0.834755H13.0152C16.7956 -0.834755 19.8484 2.23006 19.8484 5.99846V13.0106C19.8484 16.7909 16.7836 19.8438 13.0152 19.8438H6.00314C2.22281 19.8557 -0.830078 16.7909 -0.830078 13.0106V5.99846C-0.830078 2.23006 2.22281 -0.834755 6.00314 -0.834755Z" fill="url(#paint2_radial_70_53)"/>
</g>
<defs>
<radialGradient id="paint0_radial_70_53" cx="0" cy="0" r="1" gradientUnits="userSpaceOnUse" gradientTransform="translate(4.88062 20.4293) scale(25.9633)">
<stop offset="0.03" stop-color="#FEDD76"/>
<stop offset="0.29" stop-color="#FB741E"/>
<stop offset="0.5" stop-color="#DE286F"/>
<stop offset="0.74" stop-color="#A030B6"/>
<stop offset="0.96" stop-color="#436DEF"/>
</radialGradient>
<radialGradient id="paint1_radial_70_53" cx="0" cy="0" r="1" gradientUnits="userSpaceOnUse" gradientTransform="translate(4.88372 20.4356) scale(25.9633)">
<stop offset="0.03" stop-color="#FEDD76"/>
<stop offset="0.29" stop-color="#FB741E"/>
<stop offset="0.5" stop-color="#DE286F"/>
<stop offset="0.74" stop-color="#A030B6"/>
<stop offset="0.96" stop-color="#436DEF"/>
</radialGradient>
<radialGradient id="paint2_radial_70_53" cx="0" cy="0" r="1" gradientUnits="userSpaceOnUse" gradientTransform="translate(4.87964 20.4294) scale(25.9633)">
<stop offset="0.03" stop-color="#FEDD76"/>
<stop offset="0.29" stop-color="#FB741E"/>
<stop offset="0.5" stop-color="#DE286F"/>
<stop offset="0.74" stop-color="#A030B6"/>
<stop offset="0.96" stop-color="#436DEF"/>
</radialGradient>
</defs>
</svg>
