<svg width="51" height="51" viewBox="0 0 51 51" fill="none" xmlns="http://www.w3.org/2000/svg">
<path d="M42.1039 0H8.89532C6.53689 0.00317693 4.27606 0.941163 2.60862 2.60864C0.941177 4.27611 0.00315149 6.53695 0 8.8954V30.2443C0 30.7161 0.187442 31.1684 0.521012 31.5024C0.854581 31.836 1.3069 32.0234 1.77907 32.0234H14.2325V44.477C14.2337 46.2065 14.9215 47.8652 16.1443 49.0883C17.3673 50.3109 19.0261 50.9988 20.7555 51H44.477C46.2065 50.9988 47.8652 50.311 49.0883 49.0883C50.3109 47.8652 50.9988 46.2063 51 44.477V8.8954C50.9968 6.53695 50.0588 4.27609 48.3914 2.60864C46.7239 0.941184 44.4631 0.00315151 42.1047 0H42.1039ZM39.7319 22.5353L25.4994 22.5349C24.8636 22.5349 24.2763 22.1958 23.9586 21.6454C23.6409 21.095 23.6409 20.4167 23.9586 19.8663C24.2763 19.3159 24.8636 18.9768 25.4994 18.9768H39.7319C40.3677 18.9768 40.955 19.3159 41.2727 19.8663C41.5904 20.4167 41.5904 21.095 41.2727 21.6454C40.955 22.1958 40.3677 22.5349 39.7319 22.5349V22.5353ZM41.511 27.8722C41.511 28.3443 41.3235 28.7967 40.99 29.1302C40.6564 29.4638 40.2037 29.6513 39.7319 29.6513H25.4994C24.8636 29.6513 24.2763 29.3121 23.9586 28.7617C23.6409 28.2113 23.6409 27.533 23.9586 26.9826C24.2763 26.4322 24.8636 26.0931 25.4994 26.0931H39.7319C40.2037 26.0931 40.6564 26.2805 40.99 26.6141C41.3235 26.9481 41.511 27.4004 41.511 27.8722ZM23.7203 13.6395C23.7203 13.1678 23.9078 12.7155 24.2413 12.3815C24.5749 12.0479 25.0276 11.8605 25.4994 11.8605H32.6157C33.2514 11.8605 33.8387 12.1996 34.1564 12.75C34.4741 13.3004 34.4741 13.9787 34.1564 14.5291C33.8387 15.0795 33.2514 15.4186 32.6157 15.4186H25.4994C25.0276 15.4186 24.5749 15.2312 24.2413 14.8976C23.9078 14.564 23.7203 14.1117 23.7203 13.6395ZM25.4994 33.2094H39.7319C40.3677 33.2094 40.955 33.5485 41.2727 34.099C41.5904 34.6494 41.5904 35.3276 41.2727 35.878C40.955 36.4284 40.3677 36.7676 39.7319 36.7676H25.4994C24.8636 36.7676 24.2763 36.4284 23.9586 35.878C23.6409 35.3276 23.6409 34.6493 23.9586 34.099C24.2763 33.5485 24.8636 33.2094 25.4994 33.2094ZM3.55793 28.4651V8.89519C3.55793 6.98822 4.57494 5.22622 6.22652 4.27274C7.8777 3.31926 9.91214 3.31926 11.5637 4.27274C13.2149 5.22621 14.2323 6.98822 14.2323 8.89519V28.4651H3.55793Z" fill="#3330E4"/>
<circle cx="4.5" cy="46.5" r="4.5" fill="#FF7A09"/>
</svg>
