<svg width="257" height="34" viewBox="0 0 257 34" fill="none" xmlns="http://www.w3.org/2000/svg">
<path d="M239.864 34H17C7.61524 34 0 26.3848 0 17C0 7.61525 7.61524 0 17 0H239.864C249.249 0 256.864 7.61525 256.864 17C256.864 26.3848 249.249 34 239.864 34Z" fill="#3330E4"/>
<path d="M51.3163 24.4257C48.9148 24.4257 46.8609 23.8569 45.2178 22.7193V19.2751C45.9129 19.8439 46.7977 20.3495 47.9352 20.7918C49.0412 21.2026 50.1471 21.4238 51.1899 21.4238C52.043 21.4238 52.7698 21.2658 53.3702 20.9498C53.9706 20.6339 54.2865 20.1599 54.2865 19.5595C54.2865 19.3699 54.2549 19.1803 54.2233 19.0223C54.1918 18.8643 54.0969 18.7379 53.939 18.6115C53.781 18.4851 53.6546 18.3588 53.5598 18.264C53.465 18.1692 53.2754 18.0744 52.991 17.9796C52.7066 17.8848 52.517 17.79 52.359 17.7584C52.201 17.7268 51.9482 17.632 51.5691 17.5056C51.1899 17.3792 50.9055 17.316 50.7475 17.2528C50.1787 17.0632 49.7995 16.9368 49.5468 16.8736C49.3256 16.8104 48.978 16.6524 48.4724 16.4944C47.9984 16.3048 47.6509 16.1469 47.4297 15.9889C47.2085 15.8309 46.9557 15.6413 46.6397 15.3885C46.3237 15.1357 46.0709 14.8829 45.9445 14.5985C45.7865 14.3141 45.6601 13.9982 45.5653 13.619C45.439 13.2398 45.4074 12.829 45.4074 12.355C45.4074 10.9331 45.9445 9.82717 47.0189 9.0056C48.0932 8.18404 49.5784 7.77325 51.4427 7.77325C53.307 7.77325 55.0449 8.21564 56.688 9.1004V12.3234C55.0765 11.3123 53.3386 10.8067 51.4743 10.8067C49.6416 10.8067 48.7568 11.3439 48.7568 12.3866C48.7568 12.5446 48.7884 12.7026 48.8516 12.829C48.9148 12.9554 49.0096 13.0818 49.1676 13.2082C49.3256 13.3346 49.452 13.4294 49.61 13.4926C49.7679 13.5558 49.9575 13.6506 50.2419 13.7454C50.4947 13.8402 50.7475 13.9034 50.9371 13.9666C51.1267 14.0298 51.4111 14.093 51.7903 14.2194C52.1694 14.3142 52.4538 14.4089 52.675 14.4721C53.2754 14.6617 53.781 14.8513 54.1917 15.0409C54.6025 15.2305 55.0765 15.4517 55.5505 15.7361C56.0244 16.0205 56.4352 16.3364 56.7196 16.6524C57.004 16.9684 57.2568 17.3792 57.478 17.8848C57.6676 18.3588 57.7624 18.8959 57.7624 19.4963C57.7624 21.013 57.162 22.2454 55.9613 23.1301C54.6657 23.9833 53.149 24.4257 51.3163 24.4257Z" fill="white"/>
<path d="M70.4015 22.6877C69.2007 23.8569 67.684 24.4256 65.8513 24.4256C63.987 24.4256 62.4703 23.8569 61.3011 22.6877C60.1004 21.5186 59.5 20.0966 59.5 18.3903C59.5 16.684 60.1004 15.2621 61.3011 14.1245C62.5019 12.9554 64.0186 12.3866 65.8513 12.3866C67.684 12.3866 69.2323 12.9554 70.4015 14.1245C71.6022 15.2937 72.2026 16.7156 72.2026 18.3903C72.171 20.0966 71.5706 21.5186 70.4015 22.6877ZM63.5762 20.6654C64.1766 21.2658 64.935 21.5818 65.8513 21.5818C66.7677 21.5818 67.526 21.2658 68.1264 20.6654C68.7268 20.065 69.0112 19.2751 69.0112 18.3587C69.0112 17.4424 68.7268 16.684 68.1264 16.0836C67.526 15.4833 66.7677 15.1673 65.8513 15.1673C64.935 15.1673 64.1766 15.4833 63.5762 16.0836C62.9758 16.684 62.6915 17.4424 62.6915 18.3587C62.6599 19.3067 62.9758 20.065 63.5762 20.6654Z" fill="white"/>
<path d="M82.346 12.671H85.569V24.1097H82.346V22.7193C81.3348 23.8253 80.0709 24.394 78.5226 24.394C77.1954 24.394 76.1527 23.9833 75.4259 23.1301C74.6992 22.2769 74.3516 21.1394 74.3516 19.6543V12.6394H77.5746V18.9907C77.5746 19.8755 77.7958 20.5074 78.2066 20.855C78.649 21.2342 79.1545 21.3922 79.7549 21.3922C80.2605 21.3922 80.7661 21.2658 81.2401 20.9814C81.714 20.697 82.0616 20.3494 82.346 19.9071V12.671Z" fill="white"/>
<path d="M91.9838 24.1097H88.7607V12.671H91.9838V14.0613C93.0265 12.9554 94.3221 12.3866 95.8072 12.3866C97.1343 12.3866 98.1771 12.7974 98.9039 13.6505C99.6306 14.5037 99.9782 15.6412 99.9782 17.1264V24.1412H96.7552V17.79C96.7552 16.9052 96.534 16.2732 96.1232 15.9256C95.6808 15.5465 95.1752 15.3885 94.5749 15.3885C94.0693 15.3885 93.5637 15.5149 93.0897 15.7993C92.6158 16.0836 92.2682 16.4312 91.9838 16.8736V24.1097Z" fill="white"/>
<path d="M107.53 24.394C105.982 24.394 104.686 23.8253 103.675 22.6561C102.664 21.487 102.158 20.0651 102.158 18.3587C102.158 16.6524 102.664 15.2305 103.675 14.0929C104.686 12.9238 105.982 12.355 107.53 12.355C109.141 12.355 110.405 12.9238 111.29 14.0613V8.05762H114.513V24.1097H111.29V22.7193C110.437 23.8569 109.205 24.394 107.53 24.394ZM108.446 21.5818C109.078 21.5818 109.647 21.4238 110.153 21.0762C110.658 20.7602 111.037 20.3494 111.29 19.8439V16.8736C111.037 16.3996 110.658 15.9888 110.153 15.6729C109.647 15.3569 109.078 15.1989 108.446 15.1989C107.53 15.1989 106.803 15.5149 106.234 16.1152C105.666 16.7156 105.35 17.474 105.35 18.3903C105.35 19.3067 105.634 20.0651 106.234 20.697C106.803 21.2974 107.562 21.5818 108.446 21.5818Z" fill="white"/>
<path d="M117.989 24.1097V8.05762H121.275V24.1097H117.989Z" fill="white"/>
<path d="M127.974 24.1097H124.751V12.671H127.974V14.0613C129.017 12.9554 130.312 12.3866 131.797 12.3866C133.125 12.3866 134.167 12.7974 134.894 13.6505C135.621 14.5037 135.968 15.6412 135.968 17.1264V24.1412H132.745V17.79C132.745 16.9052 132.524 16.2732 132.113 15.9256C131.671 15.5465 131.165 15.3885 130.565 15.3885C130.06 15.3885 129.554 15.5149 129.08 15.7993C128.606 16.0836 128.258 16.4312 127.974 16.8736V24.1097Z" fill="white"/>
<path d="M151.073 24.3941C150.188 24.3941 149.461 24.1413 148.893 23.6673C148.324 23.1933 148.039 22.3718 148.039 21.2342V15.3569H143.015V24.0781H139.792V15.3569H137.738V12.6394H139.792V11.5651C139.792 10.4275 140.108 9.51117 140.772 8.816C141.435 8.12083 142.383 7.77325 143.647 7.77325C144.753 7.77325 145.733 7.93125 146.554 8.24723V10.8699C145.891 10.6171 145.227 10.4907 144.595 10.4907C143.552 10.4907 143.015 10.9963 143.015 12.0391V12.671H148.039V8.05764H151.262V20.3811C151.262 21.1394 151.61 21.5186 152.305 21.5186C152.621 21.5186 152.906 21.4554 153.127 21.2974V23.9517C152.558 24.2677 151.863 24.3941 151.073 24.3941Z" fill="white"/>
<path d="M163.112 12.671H166.335V24.1097H163.112V22.7193C162.1 23.8253 160.837 24.394 159.288 24.394C157.961 24.394 156.918 23.9833 156.192 23.1301C155.465 22.2769 155.117 21.1394 155.117 19.6543V12.6394H158.34V18.9907C158.34 19.8755 158.561 20.5074 158.972 20.855C159.415 21.2342 159.92 21.3922 160.521 21.3922C161.026 21.3922 161.532 21.2658 162.006 20.9814C162.48 20.697 162.827 20.3494 163.112 19.9071V12.671Z" fill="white"/>
<path d="M175.088 24.3941C173.287 24.3941 171.801 23.8569 170.569 22.751C169.337 21.645 168.736 20.1915 168.736 18.3588C168.736 16.6524 169.305 15.2305 170.411 14.093C171.517 12.9238 172.939 12.355 174.708 12.355C176.383 12.355 177.71 12.9238 178.69 14.093C179.669 15.2621 180.175 16.684 180.175 18.3903V19.2435H171.959C172.117 20.0335 172.56 20.6023 173.255 21.013C173.95 21.4238 174.803 21.6134 175.814 21.6134C177.142 21.6134 178.374 21.2658 179.48 20.6022V23.1933C178.405 24.0149 176.952 24.3941 175.088 24.3941ZM171.928 17.2212H176.952C176.92 16.5892 176.699 16.0521 176.257 15.6097C175.814 15.1673 175.246 14.9461 174.55 14.9461C173.792 14.9461 173.192 15.1673 172.749 15.5781C172.275 15.9889 172.023 16.5261 171.928 17.2212Z" fill="white"/>
<path d="M185.863 24.1097H182.64V12.671H185.863V14.0613C186.905 12.9554 188.201 12.3866 189.686 12.3866C191.013 12.3866 192.056 12.7974 192.783 13.6505C193.51 14.5037 193.857 15.6412 193.857 17.1264V24.1412H190.634V17.79C190.634 16.9052 190.413 16.2732 190.002 15.9256C189.56 15.5465 189.054 15.3885 188.454 15.3885C187.948 15.3885 187.443 15.5149 186.969 15.7993C186.495 16.0836 186.147 16.4312 185.863 16.8736V24.1097Z" fill="white"/>
<path d="M202.231 24.3941C200.524 24.3941 199.071 23.8253 197.839 22.7193C196.606 21.6134 196.006 20.1599 196.006 18.3272C196.006 16.5261 196.606 15.0725 197.839 13.9982C199.071 12.8922 200.524 12.355 202.262 12.355C203.495 12.355 204.632 12.6078 205.643 13.1134V15.8625C204.664 15.3885 203.684 15.1673 202.736 15.1673C201.757 15.1673 200.904 15.4517 200.208 16.0521C199.513 16.6524 199.166 17.4108 199.166 18.3588C199.166 19.3067 199.513 20.0651 200.208 20.6654C200.904 21.2658 201.725 21.5502 202.736 21.5502C203.874 21.5502 204.885 21.2974 205.833 20.7602V23.5093C204.822 24.1097 203.621 24.3941 202.231 24.3941Z" fill="white"/>
<path d="M213.985 24.3941C212.184 24.3941 210.699 23.8569 209.466 22.751C208.234 21.645 207.634 20.1915 207.634 18.3588C207.634 16.6524 208.203 15.2305 209.308 14.093C210.414 12.9238 211.836 12.355 213.606 12.355C215.281 12.355 216.608 12.9238 217.587 14.093C218.567 15.2621 219.072 16.684 219.072 18.3903V19.2435H210.857C211.015 20.0335 211.457 20.6023 212.152 21.013C212.848 21.4238 213.701 21.6134 214.712 21.6134C216.039 21.6134 217.271 21.2658 218.377 20.6022V23.1933C217.303 24.0149 215.849 24.3941 213.985 24.3941ZM210.825 17.2212H215.849C215.818 16.5892 215.597 16.0521 215.154 15.6097C214.712 15.1673 214.143 14.9461 213.448 14.9461C212.69 14.9461 212.089 15.1673 211.647 15.5781C211.173 15.9889 210.92 16.5261 210.825 17.2212Z" fill="white"/>
<path d="M221.506 24.1097V12.671H224.729V14.5985C225.076 13.9981 225.614 13.4926 226.34 13.0502C227.067 12.6078 227.857 12.3866 228.71 12.3866C228.837 12.3866 228.963 12.3866 229.09 12.4182V15.5781C228.805 15.5149 228.458 15.4517 228.078 15.4517C227.288 15.4517 226.593 15.6413 225.993 16.052C225.392 16.4628 224.95 16.9052 224.729 17.4424V24.1097H221.506Z" fill="white"/>
<path d="M235.441 24.394C233.387 24.394 231.775 24.0465 230.638 23.3197V20.4442C231.112 20.7918 231.807 21.0762 232.628 21.3606C233.482 21.6134 234.366 21.7714 235.283 21.7714C236.61 21.7714 237.242 21.4554 237.242 20.8234C237.242 20.6654 237.21 20.5074 237.115 20.4126C237.021 20.2862 236.894 20.1914 236.673 20.1282C236.452 20.065 236.262 20.0018 236.073 19.9386C235.883 19.8755 235.599 19.8123 235.251 19.7175C234.904 19.6227 234.588 19.5279 234.335 19.4647C233.039 19.1487 232.123 18.7379 231.522 18.2007C230.922 17.6952 230.638 16.9052 230.638 15.894C230.638 14.7881 231.08 13.9349 231.965 13.303C232.85 12.671 234.082 12.3866 235.662 12.3866C237.4 12.3866 238.822 12.7342 239.959 13.4294V16.1784C238.632 15.3885 237.242 14.9777 235.82 14.9777C234.588 14.9777 233.987 15.2937 233.987 15.894C233.987 16.052 234.019 16.1784 234.114 16.3048C234.208 16.4312 234.366 16.526 234.588 16.6208C234.809 16.7156 234.998 16.7788 235.188 16.8104C235.377 16.842 235.63 16.9368 236.009 17C236.389 17.0948 236.641 17.158 236.831 17.1896C238.063 17.474 238.98 17.9164 239.612 18.4851C240.244 19.0539 240.56 19.8438 240.56 20.8234C240.56 21.8978 240.086 22.7509 239.169 23.4145C238.221 24.0781 236.957 24.394 235.441 24.394Z" fill="white"/>
<path d="M20.0971 25.658C19.0543 25.658 18.2012 24.8048 18.2012 23.7621V11.3755C18.2012 10.3327 19.0543 9.47955 20.0971 9.47955C21.1398 9.47955 21.993 10.3327 21.993 11.3755V23.7621C21.993 24.7732 21.1398 25.658 20.0971 25.658Z" fill="#FF7A09"/>
<path d="M25.6264 28.3755C24.5836 28.3755 23.7305 27.5223 23.7305 26.4795V8.62638C23.7305 7.58363 24.5836 6.73047 25.6264 6.73047C26.6691 6.73047 27.5223 7.58363 27.5223 8.62638V26.4795C27.5223 27.5223 26.6691 28.3755 25.6264 28.3755Z" fill="#FF7A09"/>
<path d="M31.1557 22.6245C30.1129 22.6245 29.2598 21.7714 29.2598 20.7286V14.4089C29.2598 13.3662 30.1129 12.513 31.1557 12.513C32.1984 12.513 33.0516 13.3662 33.0516 14.4089V20.7286C33.0516 21.7714 32.1984 22.6245 31.1557 22.6245Z" fill="#FF7A09"/>
<path d="M36.6859 19.9702C35.6432 19.9702 34.79 19.1171 34.79 18.0743V17.0316C34.79 15.9888 35.6432 15.1357 36.6859 15.1357C37.7287 15.1357 38.5819 15.9888 38.5819 17.0316V18.0743C38.5819 19.1171 37.7287 19.9702 36.6859 19.9702Z" fill="#FF7A09"/>
</svg>
