<svg width="54" height="51" viewBox="0 0 54 51" fill="none" xmlns="http://www.w3.org/2000/svg">
<path d="M53.4894 25.5251C53.4894 22.9306 47.5763 21.3015 46.8422 18.9886C46.0578 16.565 49.8792 11.7782 48.421 9.80717C46.9528 7.7758 41.2106 9.91779 39.1893 8.45963C37.158 6.99141 37.4395 0.857078 35.026 0.0726877C32.7131 -0.661421 29.3342 4.40694 26.7397 4.40694C24.1451 4.40694 20.8266 -0.661421 18.4633 0.0726877C16.0398 0.857078 16.3213 7.00146 14.3503 8.45963C12.3189 9.92784 6.57681 7.78585 5.11865 9.80717C3.65043 11.8385 7.43159 16.565 6.69748 18.9886C5.91309 21.3015 0 22.9306 0 25.5251C0 28.1197 5.91309 29.7488 6.6472 32.0617C7.43159 34.4853 3.61021 39.2721 5.06837 41.2431C6.53658 43.2745 12.2787 41.1325 14.3 42.5906C16.3314 44.0589 16.0498 50.1932 18.4633 50.9273C20.7763 51.6614 24.1552 46.593 26.7397 46.593C29.3241 46.593 32.6527 51.6614 35.016 50.9273C37.4395 50.1429 37.158 44.0589 39.1793 42.5906C41.2006 41.1224 46.9528 43.2644 48.4109 41.2431C49.8792 39.2117 46.098 34.4853 46.8321 32.0617C47.5763 29.7488 53.4894 28.1197 53.4894 25.5251Z" fill="#FF7A09"/>
</svg>
