<svg width="47" height="51" viewBox="0 0 47 51" fill="none" xmlns="http://www.w3.org/2000/svg">
<path d="M4.74654 13.5827C7.69197 9.6847 11.8388 6.75359 16.6149 5.30268V1.46104C16.6149 0.379643 17.7874 -0.445588 18.9027 0.265708L32.1154 7.86317C33.0878 8.43235 33.0878 9.79806 32.1154 10.3672L18.7885 18.0217C17.8162 18.5622 16.6148 17.8795 16.6148 16.7699V14.408C7.66343 19.0462 5.74716 31.0259 12.9256 38.1669C22.3917 47.5854 38.4923 40.8132 38.4923 27.6388C38.4923 25.3908 37.9202 23.8542 37.9202 23.4277C37.9202 22.6024 38.5779 21.9768 39.3785 21.9768H45.1553C45.813 21.9768 46.4423 22.4603 46.5569 23.1434C49.3883 37.5699 38.2921 51 23.5066 51C4.14542 51 -6.86475 28.8905 4.746 13.5825L4.74654 13.5827Z" fill="#3330E4"/>
<circle cx="23.5" cy="28.5" r="6.5" fill="#FF7A09"/>
</svg>
