<svg width="37" height="51" viewBox="0 0 37 51" fill="none" xmlns="http://www.w3.org/2000/svg">
<path d="M25.215 25.0629H25.3244C24.3462 23.2829 22.9179 21.7892 21.2034 20.7117C21.205 20.7109 21.2062 20.7101 21.2079 20.7093C24.5592 18.6147 26.7994 14.8812 26.7994 10.637V3.64285H27.9813C28.9879 3.64285 29.8027 2.82809 29.8027 1.82143C29.8027 0.81476 28.9879 0 27.9813 0H1.82143C0.81476 0 0 0.81476 0 1.82143C0 2.82809 0.81476 3.64285 1.82143 3.64285H3.01149V10.637C3.01149 14.8807 5.25206 18.6147 8.60348 20.7097C8.60511 20.7105 8.60673 20.7113 8.60795 20.7122C5.25372 22.8194 3.01149 26.5452 3.01149 30.8004L3.0119 37.7945H1.82797C0.807889 37.7945 0.0065448 38.5959 0.0065448 39.616C0.0065448 40.6177 0.807889 41.4374 1.82797 41.4374H10.4981C10.4615 40.9093 10.4253 40.3812 10.4253 39.8525C10.4249 31.6928 17.0731 25.0626 25.2153 25.0626L25.215 25.0629Z" fill="#3330E4"/>
<path d="M25.215 28.7057C19.0766 28.7057 14.0679 33.6964 14.0679 39.8529C14.0679 45.9909 19.0768 51 25.215 51C31.3712 51 36.3621 45.9911 36.3621 39.8529C36.3617 33.6967 31.3711 28.7057 25.215 28.7057ZM28.3114 41.6743H25.215C24.2132 41.6743 23.3936 40.8547 23.3936 39.8529V36.6287C23.3936 35.627 24.2132 34.8073 25.215 34.8073C26.2351 34.8073 27.0364 35.627 27.0364 36.6287V38.0315H28.3114C29.3132 38.0315 30.1328 38.8511 30.1328 39.8529C30.1328 40.8547 29.3132 41.6743 28.3114 41.6743Z" fill="#FF7A09"/>
</svg>
