<svg width="150" height="35" viewBox="0 0 150 35" fill="none" xmlns="http://www.w3.org/2000/svg">
<g clip-path="url(#clip0_88_60)">
<path fill-rule="evenodd" clip-rule="evenodd" d="M13.0893 8.23846H23.3392C28.8426 8.23846 30.9142 10.9218 30.5941 14.8639C30.0649 21.3721 25.9798 24.9727 20.5611 24.9727H17.8253C17.0818 24.9727 16.5818 25.4467 16.3807 26.731L15.2192 34.1973C15.1425 34.6815 14.8779 34.9618 14.481 35H8.04105C7.43515 35 7.22084 34.5541 7.37959 33.5883L11.306 9.65274C11.4595 8.6946 12.0045 8.23846 13.0893 8.23846Z" fill="#009EE3"/>
<path fill-rule="evenodd" clip-rule="evenodd" d="M57.589 7.79504C61.0471 7.79504 64.2379 9.60174 63.8014 14.1045C63.2722 19.4558 60.2956 22.4168 55.5993 22.4296H51.4956C50.9056 22.4296 50.6198 22.8933 50.4664 23.8438L49.6726 28.7033C49.5536 29.4372 49.162 29.799 48.5852 29.799H44.7673C44.1587 29.799 43.9471 29.4245 44.082 28.5861L47.2332 9.10993C47.3893 8.1518 47.7624 7.79504 48.4423 7.79504H57.581H57.589ZM51.3713 18.2224H54.4801C56.4248 18.1511 57.716 16.854 57.8456 14.5147C57.925 13.0699 56.9116 12.0353 55.3003 12.0429L52.374 12.0557L51.3713 18.2224ZM74.181 28.3083C74.5302 28.0025 74.8847 27.8446 74.8345 28.2217L74.7101 29.1238C74.6466 29.5952 74.8398 29.8449 75.2948 29.8449H78.6868C79.2583 29.8449 79.5361 29.6232 79.6763 28.7721L81.7665 16.138C81.8724 15.5034 81.711 15.1926 81.2109 15.1926H77.4803C77.1443 15.1926 76.9802 15.3735 76.8929 15.8678L76.7553 16.6451C76.6839 17.0502 76.4908 17.1216 76.3108 16.7139C75.6785 15.2716 74.0645 14.6243 71.8129 14.6753C66.5821 14.7798 63.0552 18.6047 62.6769 23.5075C62.3858 27.2992 65.2063 30.2781 68.9263 30.2781C71.6251 30.2781 72.8316 29.5136 74.1915 28.316L74.181 28.3083ZM71.3393 26.364C69.0877 26.364 67.5188 24.6338 67.8442 22.5136C68.1696 20.3935 70.2757 18.6633 72.5273 18.6633C74.7789 18.6633 76.3479 20.3935 76.0225 22.5136C75.697 24.6338 73.5936 26.364 71.3393 26.364ZM88.4049 15.1518H84.9654C84.2563 15.1518 83.9679 15.6614 84.1928 16.2883L88.4631 28.3313L84.2748 34.0622C83.9229 34.5413 84.1954 34.9771 84.6902 34.9771H88.5557C88.781 35.0021 89.0091 34.9643 89.2127 34.8681C89.4162 34.7718 89.5868 34.6213 89.704 34.4343L102.838 16.2909C103.243 15.7328 103.052 15.1467 102.388 15.1467H98.729C98.1019 15.1467 97.8505 15.3862 97.4907 15.8882L92.0138 23.5329L89.5665 15.8704C89.4236 15.4066 89.0664 15.1518 88.4076 15.1518H88.4049Z" fill="#113984"/>
<path fill-rule="evenodd" clip-rule="evenodd" d="M116.501 7.79508C119.959 7.79508 123.15 9.60178 122.714 14.1045C122.185 19.4558 119.208 22.4168 114.512 22.4296H110.411C109.821 22.4296 109.535 22.8934 109.381 23.8439L108.588 28.7033C108.469 29.4372 108.077 29.7991 107.5 29.7991H103.682C103.074 29.7991 102.862 29.4245 102.997 28.5861L106.154 9.10487C106.31 8.14673 106.683 7.78998 107.363 7.78998H116.501V7.79508ZM110.284 18.2225H113.393C115.337 18.1511 116.628 16.8541 116.758 14.5148C116.837 13.0699 115.824 12.0353 114.213 12.043L111.286 12.0557L110.284 18.2225ZM133.093 28.3084C133.443 28.0026 133.797 27.8446 133.747 28.2217L133.623 29.1238C133.559 29.5952 133.752 29.845 134.207 29.845H137.599C138.171 29.845 138.449 29.6233 138.589 28.7721L140.679 16.138C140.785 15.5035 140.623 15.1926 140.123 15.1926H136.398C136.062 15.1926 135.898 15.3735 135.811 15.8679L135.673 16.6451C135.602 17.0503 135.408 17.1216 135.229 16.7139C134.596 15.2716 132.982 14.6243 130.731 14.6753C125.5 14.7798 121.973 18.6047 121.595 23.5075C121.304 27.2993 124.124 30.2781 127.844 30.2781C130.543 30.2781 131.749 29.5137 133.109 28.316L133.093 28.3084ZM130.254 26.3641C128.003 26.3641 126.434 24.6338 126.759 22.5137C127.085 20.3936 129.191 18.6633 131.442 18.6633C133.694 18.6633 135.263 20.3936 134.937 22.5137C134.612 24.6338 132.506 26.3641 130.254 26.3641ZM145.899 29.8653H141.983C141.915 29.8683 141.847 29.8567 141.784 29.8314C141.721 29.8061 141.665 29.7678 141.619 29.7191C141.574 29.6704 141.54 29.6126 141.52 29.5498C141.5 29.4869 141.495 29.4207 141.504 29.3557L144.944 8.36843C144.977 8.2252 145.059 8.09688 145.177 8.00435C145.295 7.91181 145.443 7.86051 145.595 7.85879H149.511C149.579 7.85585 149.647 7.86744 149.71 7.89272C149.773 7.91801 149.829 7.95636 149.875 8.00505C149.92 8.05373 149.954 8.11155 149.974 8.17437C149.994 8.23718 149.999 8.30345 149.99 8.36843L146.55 29.3557C146.518 29.4999 146.437 29.6293 146.318 29.7229C146.2 29.8164 146.052 29.8685 145.899 29.8704V29.8653Z" fill="#009EE3"/>
<path fill-rule="evenodd" clip-rule="evenodd" d="M6.6786 0H16.9391C19.8284 0 23.2574 0.0891882 25.5487 2.03859C27.0806 3.34074 27.8849 5.41245 27.6997 7.6447C27.07 15.19 22.3842 19.4175 16.0978 19.4175H11.0389C10.1764 19.4175 9.60754 19.968 9.36412 21.4561L7.95125 30.1201C7.85864 30.6807 7.60729 31.012 7.1575 31.0528H0.826031C0.124886 31.0528 -0.123824 30.5431 0.0587378 29.4168L4.60956 1.64616C4.79213 0.530031 5.42977 0 6.6786 0Z" fill="#113984"/>
<path fill-rule="evenodd" clip-rule="evenodd" d="M9.51172 20.577L11.3029 9.65273C11.4591 8.69459 12.0041 8.2359 13.0889 8.2359H23.3388C25.0348 8.2359 26.408 8.49073 27.4822 8.96215C26.453 15.6793 21.9418 19.4099 16.0363 19.4099H10.9854C10.3081 19.4125 9.8107 19.7386 9.51172 20.577Z" fill="#172C70"/>
</g>
<defs>
<clipPath id="clip0_88_60">
<rect width="150" height="35" fill="white"/>
</clipPath>
</defs>
</svg>
