<svg width="23" height="29" viewBox="0 0 23 29" fill="none" xmlns="http://www.w3.org/2000/svg">
<path d="M0.675069 1.62319e-05C0.496249 -0.000194821 0.324488 0.0696701 0.197859 0.194411C0.0714432 0.319151 0.000213558 0.488425 0 0.664875V28.3351C0.000213941 28.5116 0.0714432 28.6809 0.197859 28.8056C0.324488 28.9303 0.496249 29.0002 0.675069 29H22.3249C22.5037 29.0002 22.6755 28.9303 22.8021 28.8056C22.9286 28.6809 22.9998 28.5116 23 28.3351V9.51601H14.0349C13.6625 9.51601 13.3599 9.21862 13.3599 8.85114L13.3772 0L0.675069 1.62319e-05ZM14.7283 0.410115L14.7082 8.18492H22.6027L14.7283 0.410115ZM9.93818 11.5296C10.4406 11.5526 10.9153 11.7957 11.1884 12.1723C11.5527 12.6744 11.6802 13.3046 11.7287 14.0265C11.7726 14.6774 11.5195 15.5586 11.4231 16.3375C11.9024 16.9323 12.1826 17.4785 12.7658 18.0539C13.3488 18.6292 13.9022 18.9055 14.5052 19.3788C15.2936 19.2838 16.1871 19.0278 16.8459 19.071C17.5774 19.1189 18.2123 19.2485 18.7214 19.6078C19.2303 19.9672 19.4993 20.6791 19.3203 21.3389C19.1413 21.9985 18.5456 22.489 17.9229 22.5492C17.3 22.6093 16.6866 22.402 16.0288 22.0825C15.4357 21.7944 14.789 21.136 14.1533 20.6641C13.3916 20.7764 12.7713 20.7429 11.9748 20.9535C11.1778 21.1637 10.6584 21.4983 9.94186 21.7769C9.63063 22.4991 9.40625 23.3907 9.03856 23.9327C8.63065 24.5338 8.20459 25.0146 7.63472 25.2698C7.06485 25.525 6.29872 25.3945 5.80929 24.9116C5.31986 24.4287 5.18877 23.6775 5.44737 23.1152C5.70619 22.5529 6.19816 22.1312 6.80757 21.7289C7.35663 21.3661 8.25719 21.1443 8.98849 20.8374C9.27105 20.1303 9.60989 19.6181 9.82334 18.8318C10.0366 18.046 10.0028 17.4333 10.1166 16.6821C9.63853 16.0555 8.97094 15.4189 8.67919 14.8341C8.35534 14.185 8.14786 13.5759 8.20882 12.9613C8.26978 12.3467 8.76435 11.7603 9.43295 11.5837C9.60001 11.5395 9.77091 11.5218 9.93818 11.5294L9.93818 11.5296ZM9.93197 12.7485C9.88984 12.7552 9.83508 12.7694 9.76107 12.789C9.46481 12.8673 9.48621 12.8743 9.46546 13.0845C9.44471 13.2947 9.54332 13.7443 9.8124 14.2838C9.91037 14.4803 10.2141 14.7553 10.3489 14.972C10.3559 14.7166 10.4834 14.3272 10.4687 14.1077C10.4282 13.5079 10.2888 13.0703 10.1643 12.8987C10.0708 12.77 10.0582 12.7282 9.93219 12.7485L9.93197 12.7485ZM11.191 18.0574C11.1061 18.4452 11.1493 18.7624 11.0438 19.1507C10.9379 19.5408 10.7394 19.797 10.6158 20.1763C10.9991 20.0549 11.2549 19.8557 11.6489 19.7514C12.0434 19.6471 12.367 19.6913 12.7606 19.6075C12.4618 19.3402 12.1597 19.2201 11.8708 18.9352C11.5824 18.6505 11.4611 18.3514 11.1908 18.0574L11.191 18.0574ZM16.761 20.3154C16.5388 20.3009 16.1448 20.4243 15.8864 20.4311C16.1077 20.5653 16.3869 20.8693 16.5875 20.9668C17.1343 21.2323 17.5862 21.3283 17.7991 21.3078C18.0121 21.2874 18.0192 21.3121 18.0985 21.0197C18.1779 20.7274 18.1627 20.7424 17.9888 20.6196C17.8147 20.4967 17.3689 20.3553 16.761 20.3154ZM8.32766 22.4307C8.09964 22.5525 7.6958 22.6418 7.51033 22.7644C7.00403 23.0987 6.69044 23.44 6.60189 23.6323C6.51355 23.8246 6.48853 23.8159 6.70542 24.0299C6.92231 24.2439 6.91611 24.2207 7.11097 24.1333C7.30583 24.0462 7.65299 23.7378 7.99181 23.2382C8.11588 23.0552 8.204 22.6555 8.32742 22.4305L8.32766 22.4307Z" fill="#3330E4"/>
</svg>
