<svg width="69" height="51" viewBox="0 0 69 51" fill="none" xmlns="http://www.w3.org/2000/svg">
<path d="M68.465 29.4975C68.465 20.763 61.3566 13.6552 52.6202 13.6552H49.013C49.2718 14.7566 49.4465 15.8915 49.527 17.0494H52.6202C59.4852 17.0494 65.0688 22.6346 65.0688 29.498C65.0688 33.8739 62.7184 37.9803 58.9299 40.2165L58.0109 40.7565L58.1005 41.8202C58.3028 44.1828 58.3471 45.706 58.3288 46.675C57.422 45.9383 55.9722 44.6546 53.6901 42.4285L53.1939 41.9476H45.2033C41.7525 41.9476 38.6277 40.5324 36.371 38.2564C35.236 38.7266 34.0536 39.0995 32.832 39.3669C35.7352 43.0016 40.1986 45.3403 45.2031 45.3403H51.8153C57.6181 50.9546 58.5523 50.9806 59.3067 50.9985L59.3602 51C59.9216 51 60.4478 50.7641 60.8406 50.3367C61.4794 49.6429 62.0123 48.5064 61.5666 42.5559C65.8461 39.6187 68.4646 34.7105 68.4646 29.498L68.465 29.4975Z" fill="#FF7A09"/>
<path d="M46.7778 18.5326C46.7778 8.298 38.4783 0 28.2439 0H18.5313C8.29618 0 0 8.2984 0 18.5326C0 25.3332 3.676 31.2609 9.13784 34.4831C8.75426 38.9531 8.51992 44.5063 9.71451 44.4742C10.8739 44.4421 15.2024 40.456 18.6832 37.0617H28.2454C38.4791 37.0637 46.778 28.7654 46.778 18.5317L46.7778 18.5326ZM11.164 22.1734C9.15284 22.1734 7.52324 20.5422 7.52324 18.5326C7.52324 16.5214 9.15128 14.8918 11.164 14.8918C13.1721 14.8918 14.8048 16.5198 14.8048 18.5326C14.8033 20.5407 13.1726 22.1734 11.164 22.1734ZM23.3859 22.1734C21.3779 22.1734 19.7481 20.5422 19.7481 18.5326C19.7481 16.5214 21.3762 14.8918 23.3859 14.8918C25.3971 14.8918 27.0297 16.5198 27.0297 18.5326C27.0297 20.5407 25.397 22.1734 23.3859 22.1734ZM35.614 22.1734C33.6028 22.1734 31.9702 20.5422 31.9702 18.5326C31.9702 16.5214 33.6014 14.8918 35.614 14.8918C37.622 14.8918 39.2518 16.5198 39.2518 18.5326C39.2518 20.5407 37.6237 22.1734 35.614 22.1734Z" fill="#3330E4"/>
</svg>
