<svg width="20" height="20" viewBox="0 0 20 20" fill="none" xmlns="http://www.w3.org/2000/svg">
<path d="M10.0004 3.64771C6.4972 3.64771 3.64697 6.49767 3.64697 10.0007C3.64697 13.5038 6.49734 16.3541 10.0004 16.3541C13.5038 16.3541 16.3537 13.5039 16.3537 10.0007C16.3537 6.49756 13.5037 3.64771 10.0004 3.64771Z" fill="#FF7A09"/>
<path d="M8.71216 3.17272H11.2882H11.2944C11.5546 3.17272 11.7652 2.9621 11.7652 2.70194C11.7652 2.59051 11.7266 2.4879 11.6619 2.4075L10.4084 0.235384C10.324 0.0897977 10.1686 0 10.0007 0C9.83248 0 9.67707 0.0897977 9.59298 0.235384L8.30478 2.46641C8.22067 2.61199 8.22067 2.79159 8.30478 2.93718C8.38874 3.08291 8.54401 3.17271 8.71223 3.17271L8.71216 3.17272Z" fill="#FF7A09"/>
<path d="M11.2885 16.8286H8.71249C8.54428 16.8286 8.38887 16.9184 8.30478 17.064C8.22067 17.2096 8.22067 17.3892 8.30478 17.5348L9.59298 19.7661C9.67709 19.9117 9.83277 20.0015 10.0007 20.0015C10.1686 20.0015 10.3246 19.9117 10.4084 19.7661L11.6962 17.5348C11.7806 17.3892 11.7806 17.2096 11.6962 17.064C11.612 16.9184 11.4567 16.8286 11.2885 16.8286Z" fill="#FF7A09"/>
<path d="M3.47407 5.87255C3.51775 6.03507 3.64456 6.16159 3.80708 6.20528C3.84721 6.21624 3.88834 6.22122 3.9289 6.22122C4.05228 6.22122 4.17239 6.17283 4.26191 6.08346L6.08365 4.26171C6.20263 4.14274 6.24902 3.96955 6.20548 3.8069C6.16179 3.64438 6.03498 3.51743 5.87247 3.47389L3.38372 2.80714C3.2212 2.76345 3.04786 2.80999 2.9289 2.92897C2.80995 3.04794 2.76353 3.22113 2.80708 3.38378L3.47407 5.87255Z" fill="#FF7A09"/>
<path d="M16.5277 14.1285C16.484 13.966 16.3572 13.839 16.1944 13.7955C16.0327 13.7522 15.8591 13.7983 15.7398 13.9176L13.9178 15.7396C13.7988 15.8586 13.7524 16.0322 13.7957 16.1944C13.839 16.3567 13.9665 16.4839 14.129 16.5275L16.618 17.1938C16.6582 17.2044 16.699 17.2097 16.7398 17.2097C16.8632 17.2097 16.9831 17.1613 17.0729 17.0719C17.1918 16.953 17.2382 16.7794 17.195 16.6171L16.5277 14.1285Z" fill="#FF7A09"/>
<path d="M15.7392 6.08334C15.8287 6.17285 15.9488 6.2211 16.0722 6.2211C16.1131 6.2211 16.1538 6.21583 16.1943 6.20516C16.3569 6.16147 16.4838 6.03467 16.5273 5.87215L17.1944 3.38366C17.2381 3.22114 17.1912 3.0478 17.0723 2.92884C16.9533 2.80988 16.7791 2.76304 16.6177 2.80702L14.1287 3.47376C13.9657 3.51745 13.8389 3.64425 13.7954 3.80677C13.7517 3.96929 13.7985 4.14263 13.9175 4.26159L15.7392 6.08334Z" fill="#FF7A09"/>
<path d="M4.26152 13.9176C4.14255 13.7986 3.96935 13.7528 3.8067 13.7955C3.64418 13.8391 3.51724 13.9659 3.47369 14.1285L2.80666 16.617C2.76297 16.7795 2.8095 16.9528 2.92848 17.0718C3.01799 17.1613 3.1381 17.2095 3.26149 17.2095C3.30205 17.2095 3.34303 17.2043 3.38331 17.1936L5.87205 16.5273C6.03457 16.4836 6.16152 16.3568 6.20506 16.1943C6.24875 16.0318 6.20222 15.8584 6.08324 15.7395L4.26152 13.9176Z" fill="#FF7A09"/>
<path d="M19.7655 9.59309L17.5348 8.30489C17.3888 8.22049 17.2099 8.22078 17.064 8.30489C16.9184 8.38899 16.8286 8.5444 16.8286 8.7126V11.2892C16.8286 11.4574 16.9184 11.6128 17.064 11.6969C17.1369 11.739 17.2181 11.7599 17.2994 11.7599C17.3806 11.7599 17.4619 11.7389 17.5348 11.6969L19.7655 10.4087C19.9111 10.3246 20.0009 10.1692 20.0009 10.001C20.0009 9.83262 19.9111 9.67722 19.7655 9.59312L19.7655 9.59309Z" fill="#FF7A09"/>
<path d="M3.17257 11.2888V8.71221C3.17257 8.544 3.08277 8.3886 2.93718 8.3045C2.7916 8.22011 2.612 8.22011 2.46641 8.3045L0.235384 9.5927C0.0897976 9.67681 0 9.83222 0 10.0004C0 10.1686 0.0897976 10.324 0.235384 10.4081L2.46641 11.6963C2.53927 11.7384 2.62053 11.7594 2.70179 11.7594C2.78305 11.7594 2.86431 11.7383 2.93718 11.6963C3.08248 11.6126 3.17256 11.4572 3.17256 11.2887L3.17257 11.2888Z" fill="#FF7A09"/>
</svg>
