<svg width="18" height="21" viewBox="0 0 18 21" fill="none" xmlns="http://www.w3.org/2000/svg">
<g id="Group">
<path id="Vector" d="M0.754251 3.75254C0.554897 3.75371 0.363405 3.67537 0.221788 3.53511C0.0798444 3.39433 0 3.20268 0 3.00264C0 2.80261 0.0798444 2.61096 0.221788 2.47018L2.47145 0.220513C2.66177 0.0303623 2.93896 -0.043958 3.19876 0.0256745C3.45871 0.0953071 3.66159 0.29818 3.73122 0.558138C3.80086 0.817921 3.72654 1.0951 3.53639 1.28544L1.28672 3.53511C1.14511 3.67538 0.953619 3.75371 0.754251 3.75254Z" fill="#3330E4"/>
<path id="Vector_2" d="M17.2507 3.75254C17.0513 3.75372 16.8598 3.67538 16.7182 3.53511L14.4686 1.28544C14.2784 1.09513 14.2041 0.817943 14.2737 0.558139C14.3434 0.298189 14.5462 0.0953072 14.8062 0.0256746C15.066 -0.0439579 15.3431 0.0303617 15.5335 0.220513L17.7832 2.47018C17.9251 2.61095 18.0049 2.80261 18.0049 3.00264C18.0049 3.20268 17.9251 3.39433 17.7832 3.53511C17.6415 3.67537 17.4501 3.75372 17.2507 3.75254Z" fill="#3330E4"/>
<path id="Vector_3" d="M9.00281 2.25281C6.81506 2.25281 4.71688 3.12186 3.16996 4.66886C1.62296 6.21586 0.753906 8.31384 0.753906 10.5017C0.753906 12.6896 1.62296 14.7876 3.16996 16.3346C4.71696 17.8816 6.81494 18.7506 9.00281 18.7506C11.1907 18.7506 13.2887 17.8816 14.8357 16.3346C16.3827 14.7876 17.2517 12.6896 17.2517 10.5017C17.2517 8.31384 16.3827 6.21578 14.8357 4.66886C13.2887 3.12186 11.1907 2.25281 9.00281 2.25281ZM9.7527 10.5016C9.75153 10.6485 9.70717 10.792 9.62515 10.914L7.50305 14.131C7.36512 14.3406 7.13145 14.4671 6.88073 14.4685C6.7336 14.4673 6.59032 14.4229 6.46829 14.3411C6.30174 14.2309 6.18591 14.0592 6.14657 13.8635C6.10707 13.6678 6.14741 13.4646 6.25822 13.2986L8.27538 10.299V6.21965C8.27538 5.95183 8.41833 5.70428 8.65033 5.5702C8.88249 5.43629 9.16822 5.43629 9.40021 5.5702C9.63238 5.70428 9.77516 5.95184 9.77516 6.21965L9.7527 10.5016Z" fill="#3330E4"/>
<path id="Vector_4" d="M2.25425 21C2.0549 21.0011 1.86341 20.9228 1.72179 20.7825C1.57984 20.6418 1.5 20.4501 1.5 20.2501C1.5 20.05 1.57984 19.8584 1.72179 19.7176L3.22157 18.2178C3.41188 18.0277 3.68907 17.9534 3.94887 18.023C4.20882 18.0926 4.4117 18.2955 4.48134 18.5555C4.55097 18.8152 4.47665 19.0924 4.2865 19.2828L2.78672 20.7825C2.64511 20.9228 2.45362 21.0011 2.25425 21Z" fill="#3330E4"/>
<path id="Vector_5" d="M15.7528 21C15.5534 21.0011 15.3619 20.9228 15.2203 20.7825L13.7205 19.2828C13.5304 19.0924 13.456 18.8153 13.5257 18.5555C13.5953 18.2955 13.7982 18.0926 14.0581 18.023C14.3179 17.9534 14.5951 18.0277 14.7854 18.2178L16.2852 19.7176C16.4272 19.8584 16.507 20.05 16.507 20.2501C16.507 20.4501 16.4272 20.6418 16.2852 20.7825C16.1436 20.9228 15.9521 21.0011 15.7528 21Z" fill="#3330E4"/>
</g>
</svg>
