<svg width="57" height="18" viewBox="0 0 57 18" fill="none" xmlns="http://www.w3.org/2000/svg">
<path d="M23.1189 0.285583L20.2852 16.9152H24.8173L27.6534 0.285583H23.1189Z" fill="#808080"/>
<path d="M16.4855 0.30434L12.0465 11.6452L11.5733 9.93286C10.6979 7.86961 8.21262 4.90645 5.29492 3.03902L9.35382 16.9071L14.1494 16.899L21.2869 0.300842L16.4855 0.30434Z" fill="#808080"/>
<path d="M9.85264 1.49446C9.58919 0.48148 8.82567 0.179569 7.87797 0.143433H0.851253L0.792969 0.474486C6.26118 1.80103 9.87945 4.99733 11.3808 8.84058L9.85264 1.49446Z" fill="#808080"/>
<path d="M36.8399 3.47379C38.3226 3.45047 39.3974 3.77453 40.232 4.11025L40.6411 4.30259L41.2543 0.698302C40.3567 0.361421 38.9497 6.10352e-05 37.1942 6.10352e-05C32.7157 6.10352e-05 29.559 2.25565 29.5345 5.48808C29.5054 7.87656 31.7831 9.2101 33.5037 10.0063C35.2697 10.8222 35.8619 11.341 35.8537 12.0695C35.8397 13.1827 34.4456 13.6933 33.1435 13.6933C31.3285 13.6933 30.3645 13.4427 28.8759 12.8225L28.2919 12.5568L27.6543 16.2788C28.7151 16.7439 30.6722 17.1437 32.704 17.1647C37.4682 17.1647 40.5642 14.9359 40.5968 11.482C40.6167 9.59244 39.4079 8.1505 36.7886 6.96733C35.2032 6.19565 34.2334 5.68275 34.2427 4.90408C34.2427 4.21283 35.0657 3.47379 36.8399 3.47379Z" fill="#808080"/>
<path d="M52.885 0.30426H49.3833C48.2957 0.30426 47.4867 0.600343 47.0088 1.68443L40.2793 16.9245H45.0388C45.0388 16.9245 45.8151 14.8753 45.9911 14.4265C46.5122 14.4265 51.1364 14.4335 51.7951 14.4335C51.9303 15.014 52.3476 16.9245 52.3476 16.9245H56.5522L52.885 0.30426ZM47.2955 11.0227C47.6685 10.068 49.1012 6.37512 49.1012 6.37512C49.0767 6.42059 49.4707 5.41344 49.705 4.78747L50.0104 6.22125C50.0104 6.22125 50.8788 10.1916 51.0607 11.0227H47.2955Z" fill="#808080"/>
</svg>
